
STARTFONT 2.1
FONT -font2------------
SIZE 64 150 150
FONTBOUNDINGBOX 32 32 0 0
CHARS 256

STARTCHAR 00
ENCODING 00
BBX 32 32 0 0
BITMAP
00f00000
00f00000
00f00000
00f00000
00f00000
00f00000
00f00000
00f00000
00f00000
00f00000
00f00000
00f00000
00f00000
00f00000
00f00000
00f00000
00f00000
00f00000
00f00000
00f00000
00f00000
00f00000
00f00000
00f00000
00f00000
00f00000
00f00000
00f00000
00f00000
00f00000
00f00000
00f00000
ENDCHAR
STARTCHAR 01
ENCODING 01
BBX 32 32 0 0
BITMAP
00f00000
00f00000
00f00000
00f00000
00f00000
00f00000
00f00000
00f00000
00f00000
00f00000
00f00000
00f00000
00f00000
00f00000
00f00000
00f00000
00f00000
00f00000
00f00000
00f00000
00f00000
00f00000
00f00000
00f00000
00f00000
00f00000
00f00000
00f00000
00f00000
00f00000
00f00000
00f00000
ENDCHAR
STARTCHAR 02
ENCODING 02
BBX 32 32 0 0
BITMAP
00f00000
00f00000
00f00000
00f00000
00f00000
00f00000
00f00000
00f00000
00f00000
00f00000
00f00000
00f00000
00f00000
00f00000
00f00000
00f00000
00f00000
00f00000
00f00000
00f00000
00f00000
00f00000
00f00000
00f00000
00f00000
00f00000
00f00000
00f00000
00f00000
00f00000
00f00000
00f00000
ENDCHAR
STARTCHAR 03
ENCODING 03
BBX 32 32 0 0
BITMAP
00f00000
00f00000
00f00000
00f00000
00f00000
00f00000
00f00000
00f00000
00f00000
00f00000
00f00000
00f00000
00f00000
00f00000
00f00000
00f00000
00f00000
00f00000
00f00000
00f00000
00f00000
00f00000
00f00000
00f00000
00f00000
00f00000
00f00000
00f00000
00f00000
00f00000
00f00000
00f00000
ENDCHAR
STARTCHAR 04
ENCODING 04
BBX 32 32 0 0
BITMAP
00f00000
00f00000
00f00000
00f00000
00f00000
00f00000
00f00000
00f00000
00f00000
00f00000
00f00000
00f00000
00f00000
00f00000
00f00000
00f00000
00f00000
00f00000
00f00000
00f00000
00f00000
00f00000
00f00000
00f00000
00f00000
00f00000
00f00000
00f00000
00f00000
00f00000
00f00000
00f00000
ENDCHAR
STARTCHAR 05
ENCODING 05
BBX 32 32 0 0
BITMAP
00f00000
00f00000
00f00000
00f00000
00f00000
00f00000
00f00000
00f00000
00f00000
00f00000
00f00000
00f00000
00f00000
00f00000
00f00000
00f00000
00f00000
00f00000
00f00000
00f00000
00f00000
00f00000
00f00000
00f00000
00f00000
00f00000
00f00000
00f00000
00f00000
00f00000
00f00000
00f00000
ENDCHAR
STARTCHAR 06
ENCODING 06
BBX 32 32 0 0
BITMAP
00f00000
00f00000
00f00000
00f00000
00f00000
00f00000
00f00000
00f00000
00f00000
00f00000
00f00000
00f00000
00f00000
00f00000
00f00000
00f00000
00f00000
00f00000
00f00000
00f00000
00f00000
00f00000
00f00000
00f00000
00f00000
00f00000
00f00000
00f00000
00f00000
00f00000
00f00000
00f00000
ENDCHAR
STARTCHAR 07
ENCODING 07
BBX 32 32 0 0
BITMAP
00f00000
00f00000
00f00000
00f00000
00f00000
00f00000
00f00000
00f00000
00f00000
00f00000
00f00000
00f00000
00f00000
00f00000
00f00000
00f00000
00f00000
00f00000
00f00000
00f00000
00f00000
00f00000
00f00000
00f00000
00f00000
00f00000
00f00000
00f00000
00f00000
00f00000
00f00000
00f00000
ENDCHAR
STARTCHAR 08
ENCODING 08
BBX 32 32 0 0
BITMAP
00f00000
00f00000
00f00000
00f00000
00f00000
00f00000
00f00000
00f00000
00f00000
00f00000
00f00000
00f00000
00f00000
00f00000
00f00000
00f00000
00f00000
00f00000
00f00000
00f00000
00f00000
00f00000
00f00000
00f00000
00f00000
00f00000
00f00000
00f00000
00f00000
00f00000
00f00000
00f00000
ENDCHAR
STARTCHAR 09
ENCODING 09
BBX 32 32 0 0
BITMAP
00f00000
00f00000
00f00000
00f00000
00f00000
00f00000
00f00000
00f00000
00f00000
00f00000
00f00000
00f00000
00f00000
00f00000
00f00000
00f00000
00f00000
00f00000
00f00000
00f00000
00f00000
00f00000
00f00000
00f00000
00f00000
00f00000
00f00000
00f00000
00f00000
00f00000
00f00000
00f00000
ENDCHAR
STARTCHAR 10
ENCODING 10
BBX 32 32 0 0
BITMAP
00f00000
00f00000
00f00000
00f00000
00f00000
00f00000
00f00000
00f00000
00f00000
00f00000
00f00000
00f00000
00f00000
00f00000
00f00000
00f00000
00f00000
00f00000
00f00000
00f00000
00f00000
00f00000
00f00000
00f00000
00f00000
00f00000
00f00000
00f00000
00f00000
00f00000
00f00000
00f00000
ENDCHAR
STARTCHAR 11
ENCODING 11
BBX 32 32 0 0
BITMAP
00f00000
00f00000
00f00000
00f00000
00f00000
00f00000
00f00000
00f00000
00f00000
00f00000
00f00000
00f00000
00f00000
00f00000
00f00000
00f00000
00f00000
00f00000
00f00000
00f00000
00f00000
00f00000
00f00000
00f00000
00f00000
00f00000
00f00000
00f00000
00f00000
00f00000
00f00000
00f00000
ENDCHAR
STARTCHAR 12
ENCODING 12
BBX 32 32 0 0
BITMAP
00f00000
00f00000
00f00000
00f00000
00f00000
00f00000
00f00000
00f00000
00f00000
00f00000
00f00000
00f00000
00f00000
00f00000
00f00000
00f00000
00f00000
00f00000
00f00000
00f00000
00f00000
00f00000
00f00000
00f00000
00f00000
00f00000
00f00000
00f00000
00f00000
00f00000
00f00000
00f00000
ENDCHAR
STARTCHAR 13
ENCODING 13
BBX 32 32 0 0
BITMAP
00f00000
00f00000
00f00000
00f00000
00f00000
00f00000
00f00000
00f00000
00f00000
00f00000
00f00000
00f00000
00f00000
00f00000
00f00000
00f00000
00f00000
00f00000
00f00000
00f00000
00f00000
00f00000
00f00000
00f00000
00f00000
00f00000
00f00000
00f00000
00f00000
00f00000
00f00000
00f00000
ENDCHAR
STARTCHAR 14
ENCODING 14
BBX 32 32 0 0
BITMAP
00f00000
00f00000
00f00000
00f00000
00f00000
00f00000
00f00000
00f00000
00f00000
00f00000
00f00000
00f00000
00f00000
00f00000
00f00000
00f00000
00f00000
00f00000
00f00000
00f00000
00f00000
00f00000
00f00000
00f00000
00f00000
00f00000
00f00000
00f00000
00f00000
00f00000
00f00000
00f00000
ENDCHAR
STARTCHAR 15
ENCODING 15
BBX 32 32 0 0
BITMAP
00f00000
00f00000
00f00000
00f00000
00f00000
00f00000
00f00000
00f00000
00f00000
00f00000
00f00000
00f00000
00f00000
00f00000
00f00000
00f00000
00f00000
00f00000
00f00000
00f00000
00f00000
00f00000
00f00000
00f00000
00f00000
00f00000
00f00000
00f00000
00f00000
00f00000
00f00000
00f00000
ENDCHAR
STARTCHAR 16
ENCODING 16
BBX 32 32 0 0
BITMAP
00f00000
00f00000
00f00000
00f00000
00f00000
00f00000
00f00000
00f00000
00f00000
00f00000
00f00000
00f00000
00f00000
00f00000
00f00000
00f00000
00f00000
00f00000
00f00000
00f00000
00f00000
00f00000
00f00000
00f00000
00f00000
00f00000
00f00000
00f00000
00f00000
00f00000
00f00000
00f00000
ENDCHAR
STARTCHAR 17
ENCODING 17
BBX 32 32 0 0
BITMAP
00f00000
00f00000
00f00000
00f00000
00f00000
00f00000
00f00000
00f00000
00f00000
00f00000
00f00000
00f00000
00f00000
00f00000
00f00000
00f00000
00f00000
00f00000
00f00000
00f00000
00f00000
00f00000
00f00000
00f00000
00f00000
00f00000
00f00000
00f00000
00f00000
00f00000
00f00000
00f00000
ENDCHAR
STARTCHAR 18
ENCODING 18
BBX 32 32 0 0
BITMAP
00f00000
00f00000
00f00000
00f00000
00f00000
00f00000
00f00000
00f00000
00f00000
00f00000
00f00000
00f00000
00f00000
00f00000
00f00000
00f00000
00f00000
00f00000
00f00000
00f00000
00f00000
00f00000
00f00000
00f00000
00f00000
00f00000
00f00000
00f00000
00f00000
00f00000
00f00000
00f00000
ENDCHAR
STARTCHAR 19
ENCODING 19
BBX 32 32 0 0
BITMAP
00f00000
00f00000
00f00000
00f00000
00f00000
00f00000
00f00000
00f00000
00f00000
00f00000
00f00000
00f00000
00f00000
00f00000
00f00000
00f00000
00f00000
00f00000
00f00000
00f00000
00f00000
00f00000
00f00000
00f00000
00f00000
00f00000
00f00000
00f00000
00f00000
00f00000
00f00000
00f00000
ENDCHAR
STARTCHAR 20
ENCODING 20
BBX 32 32 0 0
BITMAP
00f00000
00f00000
00f00000
00f00000
00f00000
00f00000
00f00000
00f00000
00f00000
00f00000
00f00000
00f00000
00f00000
00f00000
00f00000
00f00000
00f00000
00f00000
00f00000
00f00000
00f00000
00f00000
00f00000
00f00000
00f00000
00f00000
00f00000
00f00000
00f00000
00f00000
00f00000
00f00000
ENDCHAR
STARTCHAR 21
ENCODING 21
BBX 32 32 0 0
BITMAP
00f00000
00f00000
00f00000
00f00000
00f00000
00f00000
00f00000
00f00000
00f00000
00f00000
00f00000
00f00000
00f00000
00f00000
00f00000
00f00000
00f00000
00f00000
00f00000
00f00000
00f00000
00f00000
00f00000
00f00000
00f00000
00f00000
00f00000
00f00000
00f00000
00f00000
00f00000
00f00000
ENDCHAR
STARTCHAR 22
ENCODING 22
BBX 32 32 0 0
BITMAP
00f00000
00f00000
00f00000
00f00000
00f00000
00f00000
00f00000
00f00000
00f00000
00f00000
00f00000
00f00000
00f00000
00f00000
00f00000
00f00000
00f00000
00f00000
00f00000
00f00000
00f00000
00f00000
00f00000
00f00000
00f00000
00f00000
00f00000
00f00000
00f00000
00f00000
00f00000
00f00000
ENDCHAR
STARTCHAR 23
ENCODING 23
BBX 32 32 0 0
BITMAP
00f00000
00f00000
00f00000
00f00000
00f00000
00f00000
00f00000
00f00000
00f00000
00f00000
00f00000
00f00000
00f00000
00f00000
00f00000
00f00000
00f00000
00f00000
00f00000
00f00000
00f00000
00f00000
00f00000
00f00000
00f00000
00f00000
00f00000
00f00000
00f00000
00f00000
00f00000
00f00000
ENDCHAR
STARTCHAR 24
ENCODING 24
BBX 32 32 0 0
BITMAP
00f00000
00f00000
00f00000
00f00000
00f00000
00f00000
00f00000
00f00000
00f00000
00f00000
00f00000
00f00000
00f00000
00f00000
00f00000
00f00000
00f00000
00f00000
00f00000
00f00000
00f00000
00f00000
00f00000
00f00000
00f00000
00f00000
00f00000
00f00000
00f00000
00f00000
00f00000
00f00000
ENDCHAR
STARTCHAR 25
ENCODING 25
BBX 32 32 0 0
BITMAP
00f00000
00f00000
00f00000
00f00000
00f00000
00f00000
00f00000
00f00000
00f00000
00f00000
00f00000
00f00000
00f00000
00f00000
00f00000
00f00000
00f00000
00f00000
00f00000
00f00000
00f00000
00f00000
00f00000
00f00000
00f00000
00f00000
00f00000
00f00000
00f00000
00f00000
00f00000
00f00000
ENDCHAR
STARTCHAR 26
ENCODING 26
BBX 32 32 0 0
BITMAP
00f00000
00f00000
00f00000
00f00000
00f00000
00f00000
00f00000
00f00000
00f00000
00f00000
00f00000
00f00000
00f00000
00f00000
00f00000
00f00000
00f00000
00f00000
00f00000
00f00000
00f00000
00f00000
00f00000
00f00000
00f00000
00f00000
00f00000
00f00000
00f00000
00f00000
00f00000
00f00000
ENDCHAR
STARTCHAR 27
ENCODING 27
BBX 32 32 0 0
BITMAP
00f00000
00f00000
00f00000
00f00000
00f00000
00f00000
00f00000
00f00000
00f00000
00f00000
00f00000
00f00000
00f00000
00f00000
00f00000
00f00000
00f00000
00f00000
00f00000
00f00000
00f00000
00f00000
00f00000
00f00000
00f00000
00f00000
00f00000
00f00000
00f00000
00f00000
00f00000
00f00000
ENDCHAR
STARTCHAR 28
ENCODING 28
BBX 32 32 0 0
BITMAP
00f00000
00f00000
00f00000
00f00000
00f00000
00f00000
00f00000
00f00000
00f00000
00f00000
00f00000
00f00000
00f00000
00f00000
00f00000
00f00000
00f00000
00f00000
00f00000
00f00000
00f00000
00f00000
00f00000
00f00000
00f00000
00f00000
00f00000
00f00000
00f00000
00f00000
00f00000
00f00000
ENDCHAR
STARTCHAR 29
ENCODING 29
BBX 32 32 0 0
BITMAP
00f00000
00f00000
00f00000
00f00000
00f00000
00f00000
00f00000
00f00000
00f00000
00f00000
00f00000
00f00000
00f00000
00f00000
00f00000
00f00000
00f00000
00f00000
00f00000
00f00000
00f00000
00f00000
00f00000
00f00000
00f00000
00f00000
00f00000
00f00000
00f00000
00f00000
00f00000
00f00000
ENDCHAR
STARTCHAR 30
ENCODING 30
BBX 32 32 0 0
BITMAP
00f00000
00f00000
00f00000
00f00000
00f00000
00f00000
00f00000
00f00000
00f00000
00f00000
00f00000
00f00000
00f00000
00f00000
00f00000
00f00000
00f00000
00f00000
00f00000
00f00000
00f00000
00f00000
00f00000
00f00000
00f00000
00f00000
00f00000
00f00000
00f00000
00f00000
00f00000
00f00000
ENDCHAR
STARTCHAR 31
ENCODING 31
BBX 32 32 0 0
BITMAP
00f00000
00f00000
00f00000
00f00000
00f00000
00f00000
00f00000
00f00000
00f00000
00f00000
00f00000
00f00000
00f00000
00f00000
00f00000
00f00000
00f00000
00f00000
00f00000
00f00000
00f00000
00f00000
00f00000
00f00000
00f00000
00f00000
00f00000
00f00000
00f00000
00f00000
00f00000
00f00000
ENDCHAR
STARTCHAR 32
ENCODING 32
BBX 32 32 0 0
BITMAP
00000000
00000000
00000000
00000000
00000000
00000000
00000000
00000000
00000000
00000000
00000000
00000000
00000000
00000000
00000000
00000000
00000000
00000000
00000000
00000000
00000000
00000000
00000000
00000000
00000000
00000000
00000000
00000000
00000000
00000000
00000000
00000000
ENDCHAR
STARTCHAR 33
ENCODING 33
BBX 32 32 0 0
BITMAP
000ff000
000ff000
000ff000
000ff000
000ff000
000ff000
000ff000
000ff000
000ff000
000ff000
000ff000
000ff000
000ff000
000ff000
000ff000
000ff000
000ff000
000ff000
000ff000
000ff000
00000000
00000000
00000000
00000000
000ff000
000ff000
000ff000
000ff000
00000000
00000000
00000000
00000000
ENDCHAR
STARTCHAR 34
ENCODING 34
BBX 32 32 0 0
BITMAP
0ff0ff00
0ff0ff00
0ff0ff00
0ff0ff00
0ff0ff00
0ff0ff00
0ff0ff00
0ff0ff00
0ff0ff00
0ff0ff00
0ff0ff00
0ff0ff00
00000000
00000000
00000000
00000000
00000000
00000000
00000000
00000000
00000000
00000000
00000000
00000000
00000000
00000000
00000000
00000000
00000000
00000000
00000000
00000000
ENDCHAR
STARTCHAR 35
ENCODING 35
BBX 32 32 0 0
BITMAP
00ff0ff0
00ff0ff0
00ff0ff0
00ff0ff0
00ff0ff0
00ff0ff0
00ff0ff0
00ff0ff0
0fffffff
0fffffff
0fffffff
0fffffff
00ff0ff0
00ff0ff0
00ff0ff0
00ff0ff0
0fffffff
0fffffff
0fffffff
0fffffff
00ff0ff0
00ff0ff0
00ff0ff0
00ff0ff0
00ff0ff0
00ff0ff0
00ff0ff0
00ff0ff0
00000000
00000000
00000000
00000000
ENDCHAR
STARTCHAR 36
ENCODING 36
BBX 32 32 0 0
BITMAP
0000ff00
0000ff00
0000ff00
0000ff00
00ffffff
00ffffff
00ffffff
00ffffff
0ff0f000
0ff0f000
0ff0f000
0ff0f000
00fffff0
00fffff0
00fffff0
00fffff0
0000f0ff
0000f0ff
0000f0ff
0000f0ff
0ffffff0
0ffffff0
0ffffff0
0ffffff0
000ff000
000ff000
000ff000
000ff000
00000000
00000000
00000000
00000000
ENDCHAR
STARTCHAR 37
ENCODING 37
BBX 32 32 0 0
BITMAP
0ff00000
0ff00000
0ff00000
0ff00000
0ff00ff0
0ff00ff0
0ff00ff0
0ff00ff0
0000ff00
0000ff00
0000ff00
0000ff00
000ff000
000ff000
000ff000
000ff000
00ff0000
00ff0000
00ff0000
00ff0000
0ff00ff0
0ff00ff0
0ff00ff0
0ff00ff0
00000ff0
00000ff0
00000ff0
00000ff0
00000000
00000000
00000000
00000000
ENDCHAR
STARTCHAR 38
ENCODING 38
BBX 32 32 0 0
BITMAP
00fff000
00fff000
00fff000
00fff000
0ff0ff00
0ff0ff00
0ff0ff00
0ff0ff00
0ff0ff00
0ff0ff00
0ff0ff00
0ff0ff00
00fff000
00fff000
00fff000
00fff000
0ff0ff0f
0ff0ff0f
0ff0ff0f
0ff0ff0f
0ff00ff0
0ff00ff0
0ff00ff0
0ff00ff0
00fff0ff
00fff0ff
00fff0ff
00fff0ff
00000000
00000000
00000000
00000000
ENDCHAR
STARTCHAR 39
ENCODING 39
BBX 32 32 0 0
BITMAP
0000ff00
0000ff00
0000ff00
0000ff00
000ff000
000ff000
000ff000
000ff000
00ff0000
00ff0000
00ff0000
00ff0000
00000000
00000000
00000000
00000000
00000000
00000000
00000000
00000000
00000000
00000000
00000000
00000000
00000000
00000000
00000000
00000000
00000000
00000000
00000000
00000000
ENDCHAR
STARTCHAR 40
ENCODING 40
BBX 32 32 0 0
BITMAP
0000ff00
0000ff00
0000ff00
0000ff00
000ff000
000ff000
000ff000
000ff000
00ff0000
00ff0000
00ff0000
00ff0000
00ff0000
00ff0000
00ff0000
00ff0000
00ff0000
00ff0000
00ff0000
00ff0000
000ff000
000ff000
000ff000
000ff000
0000ff00
0000ff00
0000ff00
0000ff00
00000000
00000000
00000000
00000000
ENDCHAR
STARTCHAR 41
ENCODING 41
BBX 32 32 0 0
BITMAP
00ff0000
00ff0000
00ff0000
00ff0000
000ff000
000ff000
000ff000
000ff000
0000ff00
0000ff00
0000ff00
0000ff00
0000ff00
0000ff00
0000ff00
0000ff00
0000ff00
0000ff00
0000ff00
0000ff00
000ff000
000ff000
000ff000
000ff000
00ff0000
00ff0000
00ff0000
00ff0000
00000000
00000000
00000000
00000000
ENDCHAR
STARTCHAR 42
ENCODING 42
BBX 32 32 0 0
BITMAP
00000000
00000000
00000000
00000000
000ff000
000ff000
000ff000
000ff000
0ffffff0
0ffffff0
0ffffff0
0ffffff0
00ffff00
00ffff00
00ffff00
00ffff00
0ffffff0
0ffffff0
0ffffff0
0ffffff0
000ff000
000ff000
000ff000
000ff000
00000000
00000000
00000000
00000000
00000000
00000000
00000000
00000000
ENDCHAR
STARTCHAR 43
ENCODING 43
BBX 32 32 0 0
BITMAP
00000000
00000000
00000000
00000000
000ff000
000ff000
000ff000
000ff000
000ff000
000ff000
000ff000
000ff000
0ffffff0
0ffffff0
0ffffff0
0ffffff0
000ff000
000ff000
000ff000
000ff000
000ff000
000ff000
000ff000
000ff000
00000000
00000000
00000000
00000000
00000000
00000000
00000000
00000000
ENDCHAR
STARTCHAR 44
ENCODING 44
BBX 32 32 0 0
BITMAP
00000000
00000000
00000000
00000000
00000000
00000000
00000000
00000000
00000000
00000000
00000000
00000000
00000000
00000000
00000000
00000000
00000000
00000000
00000000
00000000
000ff000
000ff000
000ff000
000ff000
000ff000
000ff000
000ff000
000ff000
00ff0000
00ff0000
00ff0000
00ff0000
ENDCHAR
STARTCHAR 45
ENCODING 45
BBX 32 32 0 0
BITMAP
00000000
00000000
00000000
00000000
00000000
00000000
00000000
00000000
00000000
00000000
00000000
00000000
0ffffff0
0ffffff0
0ffffff0
0ffffff0
00000000
00000000
00000000
00000000
00000000
00000000
00000000
00000000
00000000
00000000
00000000
00000000
00000000
00000000
00000000
00000000
ENDCHAR
STARTCHAR 46
ENCODING 46
BBX 32 32 0 0
BITMAP
00000000
00000000
00000000
00000000
00000000
00000000
00000000
00000000
00000000
00000000
00000000
00000000
00000000
00000000
00000000
00000000
00000000
00000000
00000000
00000000
000ff000
000ff000
000ff000
000ff000
000ff000
000ff000
000ff000
000ff000
00000000
00000000
00000000
00000000
ENDCHAR
STARTCHAR 47
ENCODING 47
BBX 32 32 0 0
BITMAP
00000000
00000000
00000000
00000000
00000ff0
00000ff0
00000ff0
00000ff0
0000ff00
0000ff00
0000ff00
0000ff00
000ff000
000ff000
000ff000
000ff000
00ff0000
00ff0000
00ff0000
00ff0000
0ff00000
0ff00000
0ff00000
0ff00000
00000000
00000000
00000000
00000000
00000000
00000000
00000000
00000000
ENDCHAR
STARTCHAR 48
ENCODING 48
BBX 32 32 0 0
BITMAP
00ffff00
00ffff00
00ffff00
00ffff00
0ff00ff0
0ff00ff0
0ff00ff0
0ff00ff0
0ff00ff0
0ff00ff0
0ff00ff0
0ff00ff0
0ff00ff0
0ff00ff0
0ff00ff0
0ff00ff0
0ff00ff0
0ff00ff0
0ff00ff0
0ff00ff0
0ff00ff0
0ff00ff0
0ff00ff0
0ff00ff0
00ffff00
00ffff00
00ffff00
00ffff00
00000000
00000000
00000000
00000000
ENDCHAR
STARTCHAR 49
ENCODING 49
BBX 32 32 0 0
BITMAP
000ff000
000ff000
000ff000
000ff000
00fff000
00fff000
00fff000
00fff000
000ff000
000ff000
000ff000
000ff000
000ff000
000ff000
000ff000
000ff000
000ff000
000ff000
000ff000
000ff000
000ff000
000ff000
000ff000
000ff000
0ffffff0
0ffffff0
0ffffff0
0ffffff0
00000000
00000000
00000000
00000000
ENDCHAR
STARTCHAR 50
ENCODING 50
BBX 32 32 0 0
BITMAP
00ffff00
00ffff00
00ffff00
00ffff00
0ff00ff0
0ff00ff0
0ff00ff0
0ff00ff0
00000ff0
00000ff0
00000ff0
00000ff0
0000ff00
0000ff00
0000ff00
0000ff00
000ff000
000ff000
000ff000
000ff000
00ff0000
00ff0000
00ff0000
00ff0000
0ffffff0
0ffffff0
0ffffff0
0ffffff0
00000000
00000000
00000000
00000000
ENDCHAR
STARTCHAR 51
ENCODING 51
BBX 32 32 0 0
BITMAP
00ffff00
00ffff00
00ffff00
00ffff00
0ff00ff0
0ff00ff0
0ff00ff0
0ff00ff0
00000ff0
00000ff0
00000ff0
00000ff0
000fff00
000fff00
000fff00
000fff00
00000ff0
00000ff0
00000ff0
00000ff0
0ff00ff0
0ff00ff0
0ff00ff0
0ff00ff0
00ffff00
00ffff00
00ffff00
00ffff00
00000000
00000000
00000000
00000000
ENDCHAR
STARTCHAR 52
ENCODING 52
BBX 32 32 0 0
BITMAP
0000ff00
0000ff00
0000ff00
0000ff00
000fff00
000fff00
000fff00
000fff00
00ffff00
00ffff00
00ffff00
00ffff00
0ff0ff00
0ff0ff00
0ff0ff00
0ff0ff00
0ffffff0
0ffffff0
0ffffff0
0ffffff0
0000ff00
0000ff00
0000ff00
0000ff00
0000ff00
0000ff00
0000ff00
0000ff00
00000000
00000000
00000000
00000000
ENDCHAR
STARTCHAR 53
ENCODING 53
BBX 32 32 0 0
BITMAP
0ffffff0
0ffffff0
0ffffff0
0ffffff0
0ff00000
0ff00000
0ff00000
0ff00000
0fffff00
0fffff00
0fffff00
0fffff00
00000ff0
00000ff0
00000ff0
00000ff0
00000ff0
00000ff0
00000ff0
00000ff0
0ff00ff0
0ff00ff0
0ff00ff0
0ff00ff0
00ffff00
00ffff00
00ffff00
00ffff00
00000000
00000000
00000000
00000000
ENDCHAR
STARTCHAR 54
ENCODING 54
BBX 32 32 0 0
BITMAP
000fff00
000fff00
000fff00
000fff00
00ff0000
00ff0000
00ff0000
00ff0000
0ff00000
0ff00000
0ff00000
0ff00000
0fffff00
0fffff00
0fffff00
0fffff00
0ff00ff0
0ff00ff0
0ff00ff0
0ff00ff0
0ff00ff0
0ff00ff0
0ff00ff0
0ff00ff0
00ffff00
00ffff00
00ffff00
00ffff00
00000000
00000000
00000000
00000000
ENDCHAR
STARTCHAR 55
ENCODING 55
BBX 32 32 0 0
BITMAP
0ffffff0
0ffffff0
0ffffff0
0ffffff0
00000ff0
00000ff0
00000ff0
00000ff0
0000ff00
0000ff00
0000ff00
0000ff00
000ff000
000ff000
000ff000
000ff000
00ff0000
00ff0000
00ff0000
00ff0000
00ff0000
00ff0000
00ff0000
00ff0000
00ff0000
00ff0000
00ff0000
00ff0000
00000000
00000000
00000000
00000000
ENDCHAR
STARTCHAR 56
ENCODING 56
BBX 32 32 0 0
BITMAP
00ffff00
00ffff00
00ffff00
00ffff00
0ff00ff0
0ff00ff0
0ff00ff0
0ff00ff0
0ff00ff0
0ff00ff0
0ff00ff0
0ff00ff0
00ffff00
00ffff00
00ffff00
00ffff00
0ff00ff0
0ff00ff0
0ff00ff0
0ff00ff0
0ff00ff0
0ff00ff0
0ff00ff0
0ff00ff0
00ffff00
00ffff00
00ffff00
00ffff00
00000000
00000000
00000000
00000000
ENDCHAR
STARTCHAR 57
ENCODING 57
BBX 32 32 0 0
BITMAP
00ffff00
00ffff00
00ffff00
00ffff00
0ff00ff0
0ff00ff0
0ff00ff0
0ff00ff0
0ff00ff0
0ff00ff0
0ff00ff0
0ff00ff0
00fffff0
00fffff0
00fffff0
00fffff0
00000ff0
00000ff0
00000ff0
00000ff0
0000ff00
0000ff00
0000ff00
0000ff00
00fff000
00fff000
00fff000
00fff000
00000000
00000000
00000000
00000000
ENDCHAR
STARTCHAR 58
ENCODING 58
BBX 32 32 0 0
BITMAP
00000000
00000000
00000000
00000000
00000000
00000000
00000000
00000000
000ff000
000ff000
000ff000
000ff000
000ff000
000ff000
000ff000
000ff000
00000000
00000000
00000000
00000000
000ff000
000ff000
000ff000
000ff000
000ff000
000ff000
000ff000
000ff000
00000000
00000000
00000000
00000000
ENDCHAR
STARTCHAR 59
ENCODING 59
BBX 32 32 0 0
BITMAP
00000000
00000000
00000000
00000000
00000000
00000000
00000000
00000000
000ff000
000ff000
000ff000
000ff000
000ff000
000ff000
000ff000
000ff000
00000000
00000000
00000000
00000000
000ff000
000ff000
000ff000
000ff000
000ff000
000ff000
000ff000
000ff000
00ff0000
00ff0000
00ff0000
00ff0000
ENDCHAR
STARTCHAR 60
ENCODING 60
BBX 32 32 0 0
BITMAP
0000ff00
0000ff00
0000ff00
0000ff00
000ff000
000ff000
000ff000
000ff000
00ff0000
00ff0000
00ff0000
00ff0000
0ff00000
0ff00000
0ff00000
0ff00000
00ff0000
00ff0000
00ff0000
00ff0000
000ff000
000ff000
000ff000
000ff000
0000ff00
0000ff00
0000ff00
0000ff00
00000000
00000000
00000000
00000000
ENDCHAR
STARTCHAR 61
ENCODING 61
BBX 32 32 0 0
BITMAP
00000000
00000000
00000000
00000000
00000000
00000000
00000000
00000000
0ffffff0
0ffffff0
0ffffff0
0ffffff0
00000000
00000000
00000000
00000000
0ffffff0
0ffffff0
0ffffff0
0ffffff0
00000000
00000000
00000000
00000000
00000000
00000000
00000000
00000000
00000000
00000000
00000000
00000000
ENDCHAR
STARTCHAR 62
ENCODING 62
BBX 32 32 0 0
BITMAP
00ff0000
00ff0000
00ff0000
00ff0000
000ff000
000ff000
000ff000
000ff000
0000ff00
0000ff00
0000ff00
0000ff00
00000ff0
00000ff0
00000ff0
00000ff0
0000ff00
0000ff00
0000ff00
0000ff00
000ff000
000ff000
000ff000
000ff000
00ff0000
00ff0000
00ff0000
00ff0000
00000000
00000000
00000000
00000000
ENDCHAR
STARTCHAR 63
ENCODING 63
BBX 32 32 0 0
BITMAP
00ffff00
00ffff00
00ffff00
00ffff00
0ff00ff0
0ff00ff0
0ff00ff0
0ff00ff0
0000ff00
0000ff00
0000ff00
0000ff00
000ff000
000ff000
000ff000
000ff000
000ff000
000ff000
000ff000
000ff000
00000000
00000000
00000000
00000000
000ff000
000ff000
000ff000
000ff000
00000000
00000000
00000000
00000000
ENDCHAR
STARTCHAR 64
ENCODING 64
BBX 32 32 0 0
BITMAP
00ffff00
00ffff00
00ffff00
00ffff00
0ff00ff0
0ff00ff0
0ff00ff0
0ff00ff0
0ff0fff0
0ff0fff0
0ff0fff0
0ff0fff0
0ff0f0f0
0ff0f0f0
0ff0f0f0
0ff0f0f0
0ff0fff0
0ff0fff0
0ff0fff0
0ff0fff0
0ff00000
0ff00000
0ff00000
0ff00000
00ffff00
00ffff00
00ffff00
00ffff00
00000000
00000000
00000000
00000000
ENDCHAR
STARTCHAR 65
ENCODING 65
BBX 32 32 0 0
BITMAP
00ffff00
00ffff00
00ffff00
00ffff00
0ff00ff0
0ff00ff0
0ff00ff0
0ff00ff0
0ff00ff0
0ff00ff0
0ff00ff0
0ff00ff0
0ffffff0
0ffffff0
0ffffff0
0ffffff0
0ff00ff0
0ff00ff0
0ff00ff0
0ff00ff0
0ff00ff0
0ff00ff0
0ff00ff0
0ff00ff0
0ff00ff0
0ff00ff0
0ff00ff0
0ff00ff0
00000000
00000000
00000000
00000000
ENDCHAR
STARTCHAR 66
ENCODING 66
BBX 32 32 0 0
BITMAP
0fffff00
0fffff00
0fffff00
0fffff00
0ff00ff0
0ff00ff0
0ff00ff0
0ff00ff0
0ff00ff0
0ff00ff0
0ff00ff0
0ff00ff0
0fffff00
0fffff00
0fffff00
0fffff00
0ff00ff0
0ff00ff0
0ff00ff0
0ff00ff0
0ff00ff0
0ff00ff0
0ff00ff0
0ff00ff0
0fffff00
0fffff00
0fffff00
0fffff00
00000000
00000000
00000000
00000000
ENDCHAR
STARTCHAR 67
ENCODING 67
BBX 32 32 0 0
BITMAP
00ffff00
00ffff00
00ffff00
00ffff00
0ff00ff0
0ff00ff0
0ff00ff0
0ff00ff0
0ff00000
0ff00000
0ff00000
0ff00000
0ff00000
0ff00000
0ff00000
0ff00000
0ff00000
0ff00000
0ff00000
0ff00000
0ff00ff0
0ff00ff0
0ff00ff0
0ff00ff0
00ffff00
00ffff00
00ffff00
00ffff00
00000000
00000000
00000000
00000000
ENDCHAR
STARTCHAR 68
ENCODING 68
BBX 32 32 0 0
BITMAP
0ffff000
0ffff000
0ffff000
0ffff000
0ff0ff00
0ff0ff00
0ff0ff00
0ff0ff00
0ff00ff0
0ff00ff0
0ff00ff0
0ff00ff0
0ff00ff0
0ff00ff0
0ff00ff0
0ff00ff0
0ff00ff0
0ff00ff0
0ff00ff0
0ff00ff0
0ff0ff00
0ff0ff00
0ff0ff00
0ff0ff00
0ffff000
0ffff000
0ffff000
0ffff000
00000000
00000000
00000000
00000000
ENDCHAR
STARTCHAR 69
ENCODING 69
BBX 32 32 0 0
BITMAP
0ffffff0
0ffffff0
0ffffff0
0ffffff0
0ff00000
0ff00000
0ff00000
0ff00000
0ff00000
0ff00000
0ff00000
0ff00000
0fffff00
0fffff00
0fffff00
0fffff00
0ff00000
0ff00000
0ff00000
0ff00000
0ff00000
0ff00000
0ff00000
0ff00000
0ffffff0
0ffffff0
0ffffff0
0ffffff0
00000000
00000000
00000000
00000000
ENDCHAR
STARTCHAR 70
ENCODING 70
BBX 32 32 0 0
BITMAP
0ffffff0
0ffffff0
0ffffff0
0ffffff0
0ff00000
0ff00000
0ff00000
0ff00000
0ff00000
0ff00000
0ff00000
0ff00000
0fffff00
0fffff00
0fffff00
0fffff00
0ff00000
0ff00000
0ff00000
0ff00000
0ff00000
0ff00000
0ff00000
0ff00000
0ff00000
0ff00000
0ff00000
0ff00000
00000000
00000000
00000000
00000000
ENDCHAR
STARTCHAR 71
ENCODING 71
BBX 32 32 0 0
BITMAP
00ffff00
00ffff00
00ffff00
00ffff00
0ff00ff0
0ff00ff0
0ff00ff0
0ff00ff0
0ff00000
0ff00000
0ff00000
0ff00000
0ff0fff0
0ff0fff0
0ff0fff0
0ff0fff0
0ff00ff0
0ff00ff0
0ff00ff0
0ff00ff0
0ff00ff0
0ff00ff0
0ff00ff0
0ff00ff0
00ffff00
00ffff00
00ffff00
00ffff00
00000000
00000000
00000000
00000000
ENDCHAR
STARTCHAR 72
ENCODING 72
BBX 32 32 0 0
BITMAP
0ff00ff0
0ff00ff0
0ff00ff0
0ff00ff0
0ff00ff0
0ff00ff0
0ff00ff0
0ff00ff0
0ff00ff0
0ff00ff0
0ff00ff0
0ff00ff0
0ffffff0
0ffffff0
0ffffff0
0ffffff0
0ff00ff0
0ff00ff0
0ff00ff0
0ff00ff0
0ff00ff0
0ff00ff0
0ff00ff0
0ff00ff0
0ff00ff0
0ff00ff0
0ff00ff0
0ff00ff0
00000000
00000000
00000000
00000000
ENDCHAR
STARTCHAR 73
ENCODING 73
BBX 32 32 0 0
BITMAP
0ffffff0
0ffffff0
0ffffff0
0ffffff0
000ff000
000ff000
000ff000
000ff000
000ff000
000ff000
000ff000
000ff000
000ff000
000ff000
000ff000
000ff000
000ff000
000ff000
000ff000
000ff000
000ff000
000ff000
000ff000
000ff000
0ffffff0
0ffffff0
0ffffff0
0ffffff0
00000000
00000000
00000000
00000000
ENDCHAR
STARTCHAR 74
ENCODING 74
BBX 32 32 0 0
BITMAP
00fffff0
00fffff0
00fffff0
00fffff0
0000ff00
0000ff00
0000ff00
0000ff00
0000ff00
0000ff00
0000ff00
0000ff00
0000ff00
0000ff00
0000ff00
0000ff00
0000ff00
0000ff00
0000ff00
0000ff00
0ff0ff00
0ff0ff00
0ff0ff00
0ff0ff00
00fff000
00fff000
00fff000
00fff000
00000000
00000000
00000000
00000000
ENDCHAR
STARTCHAR 75
ENCODING 75
BBX 32 32 0 0
BITMAP
0ff00ff0
0ff00ff0
0ff00ff0
0ff00ff0
0ff0ff00
0ff0ff00
0ff0ff00
0ff0ff00
0ffff000
0ffff000
0ffff000
0ffff000
0fff0000
0fff0000
0fff0000
0fff0000
0ffff000
0ffff000
0ffff000
0ffff000
0ff0ff00
0ff0ff00
0ff0ff00
0ff0ff00
0ff00ff0
0ff00ff0
0ff00ff0
0ff00ff0
00000000
00000000
00000000
00000000
ENDCHAR
STARTCHAR 76
ENCODING 76
BBX 32 32 0 0
BITMAP
0ff00000
0ff00000
0ff00000
0ff00000
0ff00000
0ff00000
0ff00000
0ff00000
0ff00000
0ff00000
0ff00000
0ff00000
0ff00000
0ff00000
0ff00000
0ff00000
0ff00000
0ff00000
0ff00000
0ff00000
0ff00000
0ff00000
0ff00000
0ff00000
0ffffff0
0ffffff0
0ffffff0
0ffffff0
00000000
00000000
00000000
00000000
ENDCHAR
STARTCHAR 77
ENCODING 77
BBX 32 32 0 0
BITMAP
0ff000ff
0ff000ff
0ff000ff
0ff000ff
0fff0fff
0fff0fff
0fff0fff
0fff0fff
0fffffff
0fffffff
0fffffff
0fffffff
0ff0f0ff
0ff0f0ff
0ff0f0ff
0ff0f0ff
0ff0f0ff
0ff0f0ff
0ff0f0ff
0ff0f0ff
0ff000ff
0ff000ff
0ff000ff
0ff000ff
0ff000ff
0ff000ff
0ff000ff
0ff000ff
00000000
00000000
00000000
00000000
ENDCHAR
STARTCHAR 78
ENCODING 78
BBX 32 32 0 0
BITMAP
0ff00ff0
0ff00ff0
0ff00ff0
0ff00ff0
0ff00ff0
0ff00ff0
0ff00ff0
0ff00ff0
0fff0ff0
0fff0ff0
0fff0ff0
0fff0ff0
0ffffff0
0ffffff0
0ffffff0
0ffffff0
0ff0fff0
0ff0fff0
0ff0fff0
0ff0fff0
0ff00ff0
0ff00ff0
0ff00ff0
0ff00ff0
0ff00ff0
0ff00ff0
0ff00ff0
0ff00ff0
00000000
00000000
00000000
00000000
ENDCHAR
STARTCHAR 79
ENCODING 79
BBX 32 32 0 0
BITMAP
00ffff00
00ffff00
00ffff00
00ffff00
0ff00ff0
0ff00ff0
0ff00ff0
0ff00ff0
0ff00ff0
0ff00ff0
0ff00ff0
0ff00ff0
0ff00ff0
0ff00ff0
0ff00ff0
0ff00ff0
0ff00ff0
0ff00ff0
0ff00ff0
0ff00ff0
0ff00ff0
0ff00ff0
0ff00ff0
0ff00ff0
00ffff00
00ffff00
00ffff00
00ffff00
00000000
00000000
00000000
00000000
ENDCHAR
STARTCHAR 80
ENCODING 80
BBX 32 32 0 0
BITMAP
0fffff00
0fffff00
0fffff00
0fffff00
0ff00ff0
0ff00ff0
0ff00ff0
0ff00ff0
0ff00ff0
0ff00ff0
0ff00ff0
0ff00ff0
0fffff00
0fffff00
0fffff00
0fffff00
0ff00000
0ff00000
0ff00000
0ff00000
0ff00000
0ff00000
0ff00000
0ff00000
0ff00000
0ff00000
0ff00000
0ff00000
00000000
00000000
00000000
00000000
ENDCHAR
STARTCHAR 81
ENCODING 81
BBX 32 32 0 0
BITMAP
00ffff00
00ffff00
00ffff00
00ffff00
0ff00ff0
0ff00ff0
0ff00ff0
0ff00ff0
0ff00ff0
0ff00ff0
0ff00ff0
0ff00ff0
0ff00ff0
0ff00ff0
0ff00ff0
0ff00ff0
0ff0f0f0
0ff0f0f0
0ff0f0f0
0ff0f0f0
0ff0ff00
0ff0ff00
0ff0ff00
0ff0ff00
00ff0ff0
00ff0ff0
00ff0ff0
00ff0ff0
00000000
00000000
00000000
00000000
ENDCHAR
STARTCHAR 82
ENCODING 82
BBX 32 32 0 0
BITMAP
0fffff00
0fffff00
0fffff00
0fffff00
0ff00ff0
0ff00ff0
0ff00ff0
0ff00ff0
0ff00ff0
0ff00ff0
0ff00ff0
0ff00ff0
0fffff00
0fffff00
0fffff00
0fffff00
0ff0ff00
0ff0ff00
0ff0ff00
0ff0ff00
0ff00ff0
0ff00ff0
0ff00ff0
0ff00ff0
0ff00ff0
0ff00ff0
0ff00ff0
0ff00ff0
00000000
00000000
00000000
00000000
ENDCHAR
STARTCHAR 83
ENCODING 83
BBX 32 32 0 0
BITMAP
00ffff00
00ffff00
00ffff00
00ffff00
0ff00ff0
0ff00ff0
0ff00ff0
0ff00ff0
0ff00000
0ff00000
0ff00000
0ff00000
00ffff00
00ffff00
00ffff00
00ffff00
00000ff0
00000ff0
00000ff0
00000ff0
0ff00ff0
0ff00ff0
0ff00ff0
0ff00ff0
00ffff00
00ffff00
00ffff00
00ffff00
00000000
00000000
00000000
00000000
ENDCHAR
STARTCHAR 84
ENCODING 84
BBX 32 32 0 0
BITMAP
0ffffff0
0ffffff0
0ffffff0
0ffffff0
000ff000
000ff000
000ff000
000ff000
000ff000
000ff000
000ff000
000ff000
000ff000
000ff000
000ff000
000ff000
000ff000
000ff000
000ff000
000ff000
000ff000
000ff000
000ff000
000ff000
000ff000
000ff000
000ff000
000ff000
00000000
00000000
00000000
00000000
ENDCHAR
STARTCHAR 85
ENCODING 85
BBX 32 32 0 0
BITMAP
0ff00ff0
0ff00ff0
0ff00ff0
0ff00ff0
0ff00ff0
0ff00ff0
0ff00ff0
0ff00ff0
0ff00ff0
0ff00ff0
0ff00ff0
0ff00ff0
0ff00ff0
0ff00ff0
0ff00ff0
0ff00ff0
0ff00ff0
0ff00ff0
0ff00ff0
0ff00ff0
0ff00ff0
0ff00ff0
0ff00ff0
0ff00ff0
00ffff00
00ffff00
00ffff00
00ffff00
00000000
00000000
00000000
00000000
ENDCHAR
STARTCHAR 86
ENCODING 86
BBX 32 32 0 0
BITMAP
0ff00ff0
0ff00ff0
0ff00ff0
0ff00ff0
0ff00ff0
0ff00ff0
0ff00ff0
0ff00ff0
0ff00ff0
0ff00ff0
0ff00ff0
0ff00ff0
0ff00ff0
0ff00ff0
0ff00ff0
0ff00ff0
0ff00ff0
0ff00ff0
0ff00ff0
0ff00ff0
00ffff00
00ffff00
00ffff00
00ffff00
000ff000
000ff000
000ff000
000ff000
00000000
00000000
00000000
00000000
ENDCHAR
STARTCHAR 87
ENCODING 87
BBX 32 32 0 0
BITMAP
0ff000ff
0ff000ff
0ff000ff
0ff000ff
0ff000ff
0ff000ff
0ff000ff
0ff000ff
0ff0f0ff
0ff0f0ff
0ff0f0ff
0ff0f0ff
0ff0f0ff
0ff0f0ff
0ff0f0ff
0ff0f0ff
0fffffff
0fffffff
0fffffff
0fffffff
0fff0fff
0fff0fff
0fff0fff
0fff0fff
0ff000ff
0ff000ff
0ff000ff
0ff000ff
00000000
00000000
00000000
00000000
ENDCHAR
STARTCHAR 88
ENCODING 88
BBX 32 32 0 0
BITMAP
0ff00ff0
0ff00ff0
0ff00ff0
0ff00ff0
0ff00ff0
0ff00ff0
0ff00ff0
0ff00ff0
00ffff00
00ffff00
00ffff00
00ffff00
000ff000
000ff000
000ff000
000ff000
00ffff00
00ffff00
00ffff00
00ffff00
0ff00ff0
0ff00ff0
0ff00ff0
0ff00ff0
0ff00ff0
0ff00ff0
0ff00ff0
0ff00ff0
00000000
00000000
00000000
00000000
ENDCHAR
STARTCHAR 89
ENCODING 89
BBX 32 32 0 0
BITMAP
0ff00ff0
0ff00ff0
0ff00ff0
0ff00ff0
0ff00ff0
0ff00ff0
0ff00ff0
0ff00ff0
0ff00ff0
0ff00ff0
0ff00ff0
0ff00ff0
00ffff00
00ffff00
00ffff00
00ffff00
000ff000
000ff000
000ff000
000ff000
000ff000
000ff000
000ff000
000ff000
000ff000
000ff000
000ff000
000ff000
00000000
00000000
00000000
00000000
ENDCHAR
STARTCHAR 90
ENCODING 90
BBX 32 32 0 0
BITMAP
0ffffff0
0ffffff0
0ffffff0
0ffffff0
00000ff0
00000ff0
00000ff0
00000ff0
0000ff00
0000ff00
0000ff00
0000ff00
000ff000
000ff000
000ff000
000ff000
00ff0000
00ff0000
00ff0000
00ff0000
0ff00000
0ff00000
0ff00000
0ff00000
0ffffff0
0ffffff0
0ffffff0
0ffffff0
00000000
00000000
00000000
00000000
ENDCHAR
STARTCHAR 91
ENCODING 91
BBX 32 32 0 0
BITMAP
0fffff00
0fffff00
0fffff00
0fffff00
0ff00000
0ff00000
0ff00000
0ff00000
0ff00000
0ff00000
0ff00000
0ff00000
0ff00000
0ff00000
0ff00000
0ff00000
0ff00000
0ff00000
0ff00000
0ff00000
0ff00000
0ff00000
0ff00000
0ff00000
0fffff00
0fffff00
0fffff00
0fffff00
00000000
00000000
00000000
00000000
ENDCHAR
STARTCHAR 92
ENCODING 92
BBX 32 32 0 0
BITMAP
00000000
00000000
00000000
00000000
0ff00000
0ff00000
0ff00000
0ff00000
00ff0000
00ff0000
00ff0000
00ff0000
000ff000
000ff000
000ff000
000ff000
0000ff00
0000ff00
0000ff00
0000ff00
00000ff0
00000ff0
00000ff0
00000ff0
00000000
00000000
00000000
00000000
00000000
00000000
00000000
00000000
ENDCHAR
STARTCHAR 93
ENCODING 93
BBX 32 32 0 0
BITMAP
00fffff0
00fffff0
00fffff0
00fffff0
00000ff0
00000ff0
00000ff0
00000ff0
00000ff0
00000ff0
00000ff0
00000ff0
00000ff0
00000ff0
00000ff0
00000ff0
00000ff0
00000ff0
00000ff0
00000ff0
00000ff0
00000ff0
00000ff0
00000ff0
00fffff0
00fffff0
00fffff0
00fffff0
00000000
00000000
00000000
00000000
ENDCHAR
STARTCHAR 94
ENCODING 94
BBX 32 32 0 0
BITMAP
000ff000
000ff000
000ff000
000ff000
00ffff00
00ffff00
00ffff00
00ffff00
0ff00ff0
0ff00ff0
0ff00ff0
0ff00ff0
0f0000f0
0f0000f0
0f0000f0
0f0000f0
00000000
00000000
00000000
00000000
00000000
00000000
00000000
00000000
00000000
00000000
00000000
00000000
00000000
00000000
00000000
00000000
ENDCHAR
STARTCHAR 95
ENCODING 95
BBX 32 32 0 0
BITMAP
00000000
00000000
00000000
00000000
00000000
00000000
00000000
00000000
00000000
00000000
00000000
00000000
00000000
00000000
00000000
00000000
00000000
00000000
00000000
00000000
00000000
00000000
00000000
00000000
00000000
00000000
00000000
00000000
ffffffff
ffffffff
ffffffff
ffffffff
ENDCHAR
STARTCHAR 96
ENCODING 96
BBX 32 32 0 0
BITMAP
000fff00
000fff00
000fff00
000fff00
00ff0ff0
00ff0ff0
00ff0ff0
00ff0ff0
00ff0000
00ff0000
00ff0000
00ff0000
0fffff00
0fffff00
0fffff00
0fffff00
00ff0000
00ff0000
00ff0000
00ff0000
00ff0000
00ff0000
00ff0000
00ff0000
0ffffff0
0ffffff0
0ffffff0
0ffffff0
00000000
00000000
00000000
00000000
ENDCHAR
STARTCHAR 97
ENCODING 97
BBX 32 32 0 0
BITMAP
00000000
00000000
00000000
00000000
00000000
00000000
00000000
00000000
00ffff00
00ffff00
00ffff00
00ffff00
00000ff0
00000ff0
00000ff0
00000ff0
00fffff0
00fffff0
00fffff0
00fffff0
0ff00ff0
0ff00ff0
0ff00ff0
0ff00ff0
00fffff0
00fffff0
00fffff0
00fffff0
00000000
00000000
00000000
00000000
ENDCHAR
STARTCHAR 98
ENCODING 98
BBX 32 32 0 0
BITMAP
0ff00000
0ff00000
0ff00000
0ff00000
0ff00000
0ff00000
0ff00000
0ff00000
0fffff00
0fffff00
0fffff00
0fffff00
0ff00ff0
0ff00ff0
0ff00ff0
0ff00ff0
0ff00ff0
0ff00ff0
0ff00ff0
0ff00ff0
0ff00ff0
0ff00ff0
0ff00ff0
0ff00ff0
0fffff00
0fffff00
0fffff00
0fffff00
00000000
00000000
00000000
00000000
ENDCHAR
STARTCHAR 99
ENCODING 99
BBX 32 32 0 0
BITMAP
00000000
00000000
00000000
00000000
00000000
00000000
00000000
00000000
00ffff00
00ffff00
00ffff00
00ffff00
0ff00ff0
0ff00ff0
0ff00ff0
0ff00ff0
0ff00000
0ff00000
0ff00000
0ff00000
0ff00ff0
0ff00ff0
0ff00ff0
0ff00ff0
00ffff00
00ffff00
00ffff00
00ffff00
00000000
00000000
00000000
00000000
ENDCHAR
STARTCHAR 100
ENCODING 100
BBX 32 32 0 0
BITMAP
00000ff0
00000ff0
00000ff0
00000ff0
00000ff0
00000ff0
00000ff0
00000ff0
00fffff0
00fffff0
00fffff0
00fffff0
0ff00ff0
0ff00ff0
0ff00ff0
0ff00ff0
0ff00ff0
0ff00ff0
0ff00ff0
0ff00ff0
0ff00ff0
0ff00ff0
0ff00ff0
0ff00ff0
00fffff0
00fffff0
00fffff0
00fffff0
00000000
00000000
00000000
00000000
ENDCHAR
STARTCHAR 101
ENCODING 101
BBX 32 32 0 0
BITMAP
00000000
00000000
00000000
00000000
00000000
00000000
00000000
00000000
00ffff00
00ffff00
00ffff00
00ffff00
0ff00ff0
0ff00ff0
0ff00ff0
0ff00ff0
0ffffff0
0ffffff0
0ffffff0
0ffffff0
0ff00000
0ff00000
0ff00000
0ff00000
00ffff00
00ffff00
00ffff00
00ffff00
00000000
00000000
00000000
00000000
ENDCHAR
STARTCHAR 102
ENCODING 102
BBX 32 32 0 0
BITMAP
000fff00
000fff00
000fff00
000fff00
00ff0000
00ff0000
00ff0000
00ff0000
00ff0000
00ff0000
00ff0000
00ff0000
0fffff00
0fffff00
0fffff00
0fffff00
00ff0000
00ff0000
00ff0000
00ff0000
00ff0000
00ff0000
00ff0000
00ff0000
00ff0000
00ff0000
00ff0000
00ff0000
00000000
00000000
00000000
00000000
ENDCHAR
STARTCHAR 103
ENCODING 103
BBX 32 32 0 0
BITMAP
00000000
00000000
00000000
00000000
00000000
00000000
00000000
00000000
00fffff0
00fffff0
00fffff0
00fffff0
0ff00ff0
0ff00ff0
0ff00ff0
0ff00ff0
0ff00ff0
0ff00ff0
0ff00ff0
0ff00ff0
00fffff0
00fffff0
00fffff0
00fffff0
00000ff0
00000ff0
00000ff0
00000ff0
00ffff00
00ffff00
00ffff00
00ffff00
ENDCHAR
STARTCHAR 104
ENCODING 104
BBX 32 32 0 0
BITMAP
0ff00000
0ff00000
0ff00000
0ff00000
0ff00000
0ff00000
0ff00000
0ff00000
0fffff00
0fffff00
0fffff00
0fffff00
0ff00ff0
0ff00ff0
0ff00ff0
0ff00ff0
0ff00ff0
0ff00ff0
0ff00ff0
0ff00ff0
0ff00ff0
0ff00ff0
0ff00ff0
0ff00ff0
0ff00ff0
0ff00ff0
0ff00ff0
0ff00ff0
00000000
00000000
00000000
00000000
ENDCHAR
STARTCHAR 105
ENCODING 105
BBX 32 32 0 0
BITMAP
000ff000
000ff000
000ff000
000ff000
00000000
00000000
00000000
00000000
00fff000
00fff000
00fff000
00fff000
000ff000
000ff000
000ff000
000ff000
000ff000
000ff000
000ff000
000ff000
000ff000
000ff000
000ff000
000ff000
00ffff00
00ffff00
00ffff00
00ffff00
00000000
00000000
00000000
00000000
ENDCHAR
STARTCHAR 106
ENCODING 106
BBX 32 32 0 0
BITMAP
000ff000
000ff000
000ff000
000ff000
00000000
00000000
00000000
00000000
00fff000
00fff000
00fff000
00fff000
000ff000
000ff000
000ff000
000ff000
000ff000
000ff000
000ff000
000ff000
000ff000
000ff000
000ff000
000ff000
000ff000
000ff000
000ff000
000ff000
0fff0000
0fff0000
0fff0000
0fff0000
ENDCHAR
STARTCHAR 107
ENCODING 107
BBX 32 32 0 0
BITMAP
0ff00000
0ff00000
0ff00000
0ff00000
0ff00000
0ff00000
0ff00000
0ff00000
0ff00ff0
0ff00ff0
0ff00ff0
0ff00ff0
0ff0ff00
0ff0ff00
0ff0ff00
0ff0ff00
0ffff000
0ffff000
0ffff000
0ffff000
0ff0ff00
0ff0ff00
0ff0ff00
0ff0ff00
0ff00ff0
0ff00ff0
0ff00ff0
0ff00ff0
00000000
00000000
00000000
00000000
ENDCHAR
STARTCHAR 108
ENCODING 108
BBX 32 32 0 0
BITMAP
00fff000
00fff000
00fff000
00fff000
000ff000
000ff000
000ff000
000ff000
000ff000
000ff000
000ff000
000ff000
000ff000
000ff000
000ff000
000ff000
000ff000
000ff000
000ff000
000ff000
000ff000
000ff000
000ff000
000ff000
00ffff00
00ffff00
00ffff00
00ffff00
00000000
00000000
00000000
00000000
ENDCHAR
STARTCHAR 109
ENCODING 109
BBX 32 32 0 0
BITMAP
00000000
00000000
00000000
00000000
00000000
00000000
00000000
00000000
00ff0ff0
00ff0ff0
00ff0ff0
00ff0ff0
0fffffff
0fffffff
0fffffff
0fffffff
0ff0f0ff
0ff0f0ff
0ff0f0ff
0ff0f0ff
0ff0f0ff
0ff0f0ff
0ff0f0ff
0ff0f0ff
0ff000ff
0ff000ff
0ff000ff
0ff000ff
00000000
00000000
00000000
00000000
ENDCHAR
STARTCHAR 110
ENCODING 110
BBX 32 32 0 0
BITMAP
00000000
00000000
00000000
00000000
00000000
00000000
00000000
00000000
0fffff00
0fffff00
0fffff00
0fffff00
0ff00ff0
0ff00ff0
0ff00ff0
0ff00ff0
0ff00ff0
0ff00ff0
0ff00ff0
0ff00ff0
0ff00ff0
0ff00ff0
0ff00ff0
0ff00ff0
0ff00ff0
0ff00ff0
0ff00ff0
0ff00ff0
00000000
00000000
00000000
00000000
ENDCHAR
STARTCHAR 111
ENCODING 111
BBX 32 32 0 0
BITMAP
00000000
00000000
00000000
00000000
00000000
00000000
00000000
00000000
00ffff00
00ffff00
00ffff00
00ffff00
0ff00ff0
0ff00ff0
0ff00ff0
0ff00ff0
0ff00ff0
0ff00ff0
0ff00ff0
0ff00ff0
0ff00ff0
0ff00ff0
0ff00ff0
0ff00ff0
00ffff00
00ffff00
00ffff00
00ffff00
00000000
00000000
00000000
00000000
ENDCHAR
STARTCHAR 112
ENCODING 112
BBX 32 32 0 0
BITMAP
00000000
00000000
00000000
00000000
00000000
00000000
00000000
00000000
0fffff00
0fffff00
0fffff00
0fffff00
0ff00ff0
0ff00ff0
0ff00ff0
0ff00ff0
0ff00ff0
0ff00ff0
0ff00ff0
0ff00ff0
0fffff00
0fffff00
0fffff00
0fffff00
0ff00000
0ff00000
0ff00000
0ff00000
0ff00000
0ff00000
0ff00000
0ff00000
ENDCHAR
STARTCHAR 113
ENCODING 113
BBX 32 32 0 0
BITMAP
00000000
00000000
00000000
00000000
00000000
00000000
00000000
00000000
00fffff0
00fffff0
00fffff0
00fffff0
0ff00ff0
0ff00ff0
0ff00ff0
0ff00ff0
0ff00ff0
0ff00ff0
0ff00ff0
0ff00ff0
00fffff0
00fffff0
00fffff0
00fffff0
00000ff0
00000ff0
00000ff0
00000ff0
00000fff
00000fff
00000fff
00000fff
ENDCHAR
STARTCHAR 114
ENCODING 114
BBX 32 32 0 0
BITMAP
00000000
00000000
00000000
00000000
00000000
00000000
00000000
00000000
0ff0ff00
0ff0ff00
0ff0ff00
0ff0ff00
0fff0ff0
0fff0ff0
0fff0ff0
0fff0ff0
0ff00000
0ff00000
0ff00000
0ff00000
0ff00000
0ff00000
0ff00000
0ff00000
0ff00000
0ff00000
0ff00000
0ff00000
00000000
00000000
00000000
00000000
ENDCHAR
STARTCHAR 115
ENCODING 115
BBX 32 32 0 0
BITMAP
00000000
00000000
00000000
00000000
00000000
00000000
00000000
00000000
00fffff0
00fffff0
00fffff0
00fffff0
0ff00000
0ff00000
0ff00000
0ff00000
00ffff00
00ffff00
00ffff00
00ffff00
00000ff0
00000ff0
00000ff0
00000ff0
0fffff00
0fffff00
0fffff00
0fffff00
00000000
00000000
00000000
00000000
ENDCHAR
STARTCHAR 116
ENCODING 116
BBX 32 32 0 0
BITMAP
00ff0000
00ff0000
00ff0000
00ff0000
00ff0000
00ff0000
00ff0000
00ff0000
0fffff00
0fffff00
0fffff00
0fffff00
00ff0000
00ff0000
00ff0000
00ff0000
00ff0000
00ff0000
00ff0000
00ff0000
00ff0000
00ff0000
00ff0000
00ff0000
000fff00
000fff00
000fff00
000fff00
00000000
00000000
00000000
00000000
ENDCHAR
STARTCHAR 117
ENCODING 117
BBX 32 32 0 0
BITMAP
00000000
00000000
00000000
00000000
00000000
00000000
00000000
00000000
0ff00ff0
0ff00ff0
0ff00ff0
0ff00ff0
0ff00ff0
0ff00ff0
0ff00ff0
0ff00ff0
0ff00ff0
0ff00ff0
0ff00ff0
0ff00ff0
0ff00ff0
0ff00ff0
0ff00ff0
0ff00ff0
00fffff0
00fffff0
00fffff0
00fffff0
00000000
00000000
00000000
00000000
ENDCHAR
STARTCHAR 118
ENCODING 118
BBX 32 32 0 0
BITMAP
00000000
00000000
00000000
00000000
00000000
00000000
00000000
00000000
0ff00ff0
0ff00ff0
0ff00ff0
0ff00ff0
0ff00ff0
0ff00ff0
0ff00ff0
0ff00ff0
0ff00ff0
0ff00ff0
0ff00ff0
0ff00ff0
00ffff00
00ffff00
00ffff00
00ffff00
000ff000
000ff000
000ff000
000ff000
00000000
00000000
00000000
00000000
ENDCHAR
STARTCHAR 119
ENCODING 119
BBX 32 32 0 0
BITMAP
00000000
00000000
00000000
00000000
00000000
00000000
00000000
00000000
0ff000ff
0ff000ff
0ff000ff
0ff000ff
0ff0f0ff
0ff0f0ff
0ff0f0ff
0ff0f0ff
0ff0f0ff
0ff0f0ff
0ff0f0ff
0ff0f0ff
0fffffff
0fffffff
0fffffff
0fffffff
00ff0ff0
00ff0ff0
00ff0ff0
00ff0ff0
00000000
00000000
00000000
00000000
ENDCHAR
STARTCHAR 120
ENCODING 120
BBX 32 32 0 0
BITMAP
00000000
00000000
00000000
00000000
00000000
00000000
00000000
00000000
0ff00ff0
0ff00ff0
0ff00ff0
0ff00ff0
00ffff00
00ffff00
00ffff00
00ffff00
000ff000
000ff000
000ff000
000ff000
00ffff00
00ffff00
00ffff00
00ffff00
0ff00ff0
0ff00ff0
0ff00ff0
0ff00ff0
00000000
00000000
00000000
00000000
ENDCHAR
STARTCHAR 121
ENCODING 121
BBX 32 32 0 0
BITMAP
00000000
00000000
00000000
00000000
00000000
00000000
00000000
00000000
0ff00ff0
0ff00ff0
0ff00ff0
0ff00ff0
0ff00ff0
0ff00ff0
0ff00ff0
0ff00ff0
0ff00ff0
0ff00ff0
0ff00ff0
0ff00ff0
00fffff0
00fffff0
00fffff0
00fffff0
00000ff0
00000ff0
00000ff0
00000ff0
00ffff00
00ffff00
00ffff00
00ffff00
ENDCHAR
STARTCHAR 122
ENCODING 122
BBX 32 32 0 0
BITMAP
00000000
00000000
00000000
00000000
00000000
00000000
00000000
00000000
0ffffff0
0ffffff0
0ffffff0
0ffffff0
0000ff00
0000ff00
0000ff00
0000ff00
000ff000
000ff000
000ff000
000ff000
00ff0000
00ff0000
00ff0000
00ff0000
0ffffff0
0ffffff0
0ffffff0
0ffffff0
00000000
00000000
00000000
00000000
ENDCHAR
STARTCHAR 123
ENCODING 123
BBX 32 32 0 0
BITMAP
0000ff00
0000ff00
0000ff00
0000ff00
000ff000
000ff000
000ff000
000ff000
000ff000
000ff000
000ff000
000ff000
0fff0000
0fff0000
0fff0000
0fff0000
000ff000
000ff000
000ff000
000ff000
000ff000
000ff000
000ff000
000ff000
0000ff00
0000ff00
0000ff00
0000ff00
00000000
00000000
00000000
00000000
ENDCHAR
STARTCHAR 124
ENCODING 124
BBX 32 32 0 0
BITMAP
000ff000
000ff000
000ff000
000ff000
000ff000
000ff000
000ff000
000ff000
000ff000
000ff000
000ff000
000ff000
00000000
00000000
00000000
00000000
000ff000
000ff000
000ff000
000ff000
000ff000
000ff000
000ff000
000ff000
000ff000
000ff000
000ff000
000ff000
00000000
00000000
00000000
00000000
ENDCHAR
STARTCHAR 125
ENCODING 125
BBX 32 32 0 0
BITMAP
00ff0000
00ff0000
00ff0000
00ff0000
000ff000
000ff000
000ff000
000ff000
000ff000
000ff000
000ff000
000ff000
0000fff0
0000fff0
0000fff0
0000fff0
000ff000
000ff000
000ff000
000ff000
000ff000
000ff000
000ff000
000ff000
00ff0000
00ff0000
00ff0000
00ff0000
00000000
00000000
00000000
00000000
ENDCHAR
STARTCHAR 126
ENCODING 126
BBX 32 32 0 0
BITMAP
00ff000f
00ff000f
00ff000f
00ff000f
0ff0f0ff
0ff0f0ff
0ff0f0ff
0ff0f0ff
0f000ff0
0f000ff0
0f000ff0
0f000ff0
00000000
00000000
00000000
00000000
00000000
00000000
00000000
00000000
00000000
00000000
00000000
00000000
00000000
00000000
00000000
00000000
00000000
00000000
00000000
00000000
ENDCHAR
STARTCHAR 127
ENCODING 127
BBX 32 32 0 0
BITMAP
ffffffff
ffffffff
ffffffff
ffffffff
ffffffff
ffffffff
ffffffff
ffffffff
ffffffff
ffffffff
ffffffff
ffffffff
ffffffff
ffffffff
ffffffff
ffffffff
ffffffff
ffffffff
ffffffff
ffffffff
ffffffff
ffffffff
ffffffff
ffffffff
ffffffff
ffffffff
ffffffff
ffffffff
ffffffff
ffffffff
ffffffff
ffffffff
ENDCHAR
STARTCHAR 128
ENCODING 128
BBX 32 32 0 0
BITMAP
00000000
00000000
00000000
00000000
00000000
00000000
00000000
00000000
00000000
00000000
00000000
00000000
00000000
00000000
00000000
00000000
00000000
00000000
00000000
00000000
00000000
00000000
00000000
00000000
00000000
00000000
00000000
00000000
00000000
00000000
00000000
00000000
ENDCHAR
STARTCHAR 129
ENCODING 129
BBX 32 32 0 0
BITMAP
00000000
00000000
00000000
00000000
00000000
00000000
00000000
00000000
00000000
00000000
00000000
00000000
00000000
00000000
00000000
00000000
00000000
00000000
00000000
00000000
00000000
00000000
00000000
00000000
00000000
00000000
00000000
00000000
00000000
00000000
00000000
00000000
ENDCHAR
STARTCHAR 130
ENCODING 130
BBX 32 32 0 0
BITMAP
00000000
00000000
00000000
00000000
00000000
00000000
00000000
00000000
00000000
00000000
00000000
00000000
00000000
00000000
00000000
00000000
00000000
00000000
00000000
00000000
00000000
00000000
00000000
00000000
00000000
00000000
00000000
00000000
00000000
00000000
00000000
00000000
ENDCHAR
STARTCHAR 131
ENCODING 131
BBX 32 32 0 0
BITMAP
00000000
00000000
00000000
00000000
00000000
00000000
00000000
00000000
00000000
00000000
00000000
00000000
00000000
00000000
00000000
00000000
00000000
00000000
00000000
00000000
00000000
00000000
00000000
00000000
00000000
00000000
00000000
00000000
00000000
00000000
00000000
00000000
ENDCHAR
STARTCHAR 132
ENCODING 132
BBX 32 32 0 0
BITMAP
00000000
00000000
00000000
00000000
00000000
00000000
00000000
00000000
00000000
00000000
00000000
00000000
00000000
00000000
00000000
00000000
00000000
00000000
00000000
00000000
00000000
00000000
00000000
00000000
00000000
00000000
00000000
00000000
00000000
00000000
00000000
00000000
ENDCHAR
STARTCHAR 133
ENCODING 133
BBX 32 32 0 0
BITMAP
00000000
00000000
00000000
00000000
00000000
00000000
00000000
00000000
00000000
00000000
00000000
00000000
00000000
00000000
00000000
00000000
00000000
00000000
00000000
00000000
00000000
00000000
00000000
00000000
00000000
00000000
00000000
00000000
00000000
00000000
00000000
00000000
ENDCHAR
STARTCHAR 134
ENCODING 134
BBX 32 32 0 0
BITMAP
00000000
00000000
00000000
00000000
fff00000
fff00000
fff00000
fff00000
f0f00000
f0f00000
f0f00000
f0f00000
f0ffff00
f0ffff00
f0ffff00
f0ffff00
f0ff0f00
f0ff0f00
f0ff0f00
f0ff0f00
f0ffff00
f0ffff00
f0ffff00
f0ffff00
000f0f00
000f0f00
000f0f00
000f0f00
000f0f00
000f0f00
000f0f00
000f0f00
ENDCHAR
STARTCHAR 135
ENCODING 135
BBX 32 32 0 0
BITMAP
0ffffff0
0ffffff0
0ffffff0
0ffffff0
ff0000ff
ff0000ff
ff0000ff
ff0000ff
f00fff0f
f00fff0f
f00fff0f
f00fff0f
f0ff000f
f0ff000f
f0ff000f
f0ff000f
f00fff0f
f00fff0f
f00fff0f
f00fff0f
ff0000ff
ff0000ff
ff0000ff
ff0000ff
0ffffff0
0ffffff0
0ffffff0
0ffffff0
00000000
00000000
00000000
00000000
ENDCHAR
STARTCHAR 136
ENCODING 136
BBX 32 32 0 0
BITMAP
00000000
00000000
00000000
00000000
000ff000
000ff000
000ff000
000ff000
00fff000
00fff000
00fff000
00fff000
0fffffff
0fffffff
0fffffff
0fffffff
00fff000
00fff000
00fff000
00fff000
000ff000
000ff000
000ff000
000ff000
00000000
00000000
00000000
00000000
00000000
00000000
00000000
00000000
ENDCHAR
STARTCHAR 137
ENCODING 137
BBX 32 32 0 0
BITMAP
00000000
00000000
00000000
00000000
000ff000
000ff000
000ff000
000ff000
000fff00
000fff00
000fff00
000fff00
fffffff0
fffffff0
fffffff0
fffffff0
000fff00
000fff00
000fff00
000fff00
000ff000
000ff000
000ff000
000ff000
00000000
00000000
00000000
00000000
00000000
00000000
00000000
00000000
ENDCHAR
STARTCHAR 138
ENCODING 138
BBX 32 32 0 0
BITMAP
000ff000
000ff000
000ff000
000ff000
000ff000
000ff000
000ff000
000ff000
000ff000
000ff000
000ff000
000ff000
000ff000
000ff000
000ff000
000ff000
0ffffff0
0ffffff0
0ffffff0
0ffffff0
00ffff00
00ffff00
00ffff00
00ffff00
000ff000
000ff000
000ff000
000ff000
00000000
00000000
00000000
00000000
ENDCHAR
STARTCHAR 139
ENCODING 139
BBX 32 32 0 0
BITMAP
00000000
00000000
00000000
00000000
000ff000
000ff000
000ff000
000ff000
00ffff00
00ffff00
00ffff00
00ffff00
0ffffff0
0ffffff0
0ffffff0
0ffffff0
000ff000
000ff000
000ff000
000ff000
000ff000
000ff000
000ff000
000ff000
000ff000
000ff000
000ff000
000ff000
000ff000
000ff000
000ff000
000ff000
ENDCHAR
STARTCHAR 140
ENCODING 140
BBX 32 32 0 0
BITMAP
00000000
00000000
00000000
00000000
00000000
00000000
00000000
00000000
00000000
00000000
00000000
00000000
00000000
00000000
00000000
00000000
00000000
00000000
00000000
00000000
00000000
00000000
00000000
00000000
00000000
00000000
00000000
00000000
00000000
00000000
00000000
00000000
ENDCHAR
STARTCHAR 141
ENCODING 141
BBX 32 32 0 0
BITMAP
00000000
00000000
00000000
00000000
00000000
00000000
00000000
00000000
00000000
00000000
00000000
00000000
00000000
00000000
00000000
00000000
00000000
00000000
00000000
00000000
00000000
00000000
00000000
00000000
00000000
00000000
00000000
00000000
00000000
00000000
00000000
00000000
ENDCHAR
STARTCHAR 142
ENCODING 142
BBX 32 32 0 0
BITMAP
00000000
00000000
00000000
00000000
00000000
00000000
00000000
00000000
00000000
00000000
00000000
00000000
00000000
00000000
00000000
00000000
00000000
00000000
00000000
00000000
00000000
00000000
00000000
00000000
00000000
00000000
00000000
00000000
00000000
00000000
00000000
00000000
ENDCHAR
STARTCHAR 143
ENCODING 143
BBX 32 32 0 0
BITMAP
00000000
00000000
00000000
00000000
00000000
00000000
00000000
00000000
00000000
00000000
00000000
00000000
00000000
00000000
00000000
00000000
00000000
00000000
00000000
00000000
00000000
00000000
00000000
00000000
00000000
00000000
00000000
00000000
00000000
00000000
00000000
00000000
ENDCHAR
STARTCHAR 144
ENCODING 144
BBX 32 32 0 0
BITMAP
00000000
00000000
00000000
00000000
00000000
00000000
00000000
00000000
00000000
00000000
00000000
00000000
00000000
00000000
00000000
00000000
00000000
00000000
00000000
00000000
00000000
00000000
00000000
00000000
00000000
00000000
00000000
00000000
00000000
00000000
00000000
00000000
ENDCHAR
STARTCHAR 145
ENCODING 145
BBX 32 32 0 0
BITMAP
00000000
00000000
00000000
00000000
00000000
00000000
00000000
00000000
00000000
00000000
00000000
00000000
00000000
00000000
00000000
00000000
00000000
00000000
00000000
00000000
00000000
00000000
00000000
00000000
00000000
00000000
00000000
00000000
00000000
00000000
00000000
00000000
ENDCHAR
STARTCHAR 146
ENCODING 146
BBX 32 32 0 0
BITMAP
00000000
00000000
00000000
00000000
00000000
00000000
00000000
00000000
00000000
00000000
00000000
00000000
00000000
00000000
00000000
00000000
00000000
00000000
00000000
00000000
00000000
00000000
00000000
00000000
00000000
00000000
00000000
00000000
00000000
00000000
00000000
00000000
ENDCHAR
STARTCHAR 147
ENCODING 147
BBX 32 32 0 0
BITMAP
00000000
00000000
00000000
00000000
00000000
00000000
00000000
00000000
00000000
00000000
00000000
00000000
00000000
00000000
00000000
00000000
00000000
00000000
00000000
00000000
00000000
00000000
00000000
00000000
00000000
00000000
00000000
00000000
00000000
00000000
00000000
00000000
ENDCHAR
STARTCHAR 148
ENCODING 148
BBX 32 32 0 0
BITMAP
00000000
00000000
00000000
00000000
00000000
00000000
00000000
00000000
00000000
00000000
00000000
00000000
00000000
00000000
00000000
00000000
00000000
00000000
00000000
00000000
00000000
00000000
00000000
00000000
00000000
00000000
00000000
00000000
00000000
00000000
00000000
00000000
ENDCHAR
STARTCHAR 149
ENCODING 149
BBX 32 32 0 0
BITMAP
00000000
00000000
00000000
00000000
00000000
00000000
00000000
00000000
00000000
00000000
00000000
00000000
00000000
00000000
00000000
00000000
00000000
00000000
00000000
00000000
00000000
00000000
00000000
00000000
00000000
00000000
00000000
00000000
00000000
00000000
00000000
00000000
ENDCHAR
STARTCHAR 150
ENCODING 150
BBX 32 32 0 0
BITMAP
00000000
00000000
00000000
00000000
00000000
00000000
00000000
00000000
00000000
00000000
00000000
00000000
00000000
00000000
00000000
00000000
00000000
00000000
00000000
00000000
00000000
00000000
00000000
00000000
00000000
00000000
00000000
00000000
00000000
00000000
00000000
00000000
ENDCHAR
STARTCHAR 151
ENCODING 151
BBX 32 32 0 0
BITMAP
00000000
00000000
00000000
00000000
00000000
00000000
00000000
00000000
00000000
00000000
00000000
00000000
00000000
00000000
00000000
00000000
00000000
00000000
00000000
00000000
00000000
00000000
00000000
00000000
00000000
00000000
00000000
00000000
00000000
00000000
00000000
00000000
ENDCHAR
STARTCHAR 152
ENCODING 152
BBX 32 32 0 0
BITMAP
00000000
00000000
00000000
00000000
00000000
00000000
00000000
00000000
00000000
00000000
00000000
00000000
00000000
00000000
00000000
00000000
00000000
00000000
00000000
00000000
00000000
00000000
00000000
00000000
00000000
00000000
00000000
00000000
00000000
00000000
00000000
00000000
ENDCHAR
STARTCHAR 153
ENCODING 153
BBX 32 32 0 0
BITMAP
00000000
00000000
00000000
00000000
00000000
00000000
00000000
00000000
00000000
00000000
00000000
00000000
00000000
00000000
00000000
00000000
00000000
00000000
00000000
00000000
00000000
00000000
00000000
00000000
00000000
00000000
00000000
00000000
00000000
00000000
00000000
00000000
ENDCHAR
STARTCHAR 154
ENCODING 154
BBX 32 32 0 0
BITMAP
00000000
00000000
00000000
00000000
00000000
00000000
00000000
00000000
00000000
00000000
00000000
00000000
00000000
00000000
00000000
00000000
00000000
00000000
00000000
00000000
00000000
00000000
00000000
00000000
00000000
00000000
00000000
00000000
00000000
00000000
00000000
00000000
ENDCHAR
STARTCHAR 155
ENCODING 155
BBX 32 32 0 0
BITMAP
00000000
00000000
00000000
00000000
00000000
00000000
00000000
00000000
00000000
00000000
00000000
00000000
00000000
00000000
00000000
00000000
00000000
00000000
00000000
00000000
00000000
00000000
00000000
00000000
00000000
00000000
00000000
00000000
00000000
00000000
00000000
00000000
ENDCHAR
STARTCHAR 156
ENCODING 156
BBX 32 32 0 0
BITMAP
00000000
00000000
00000000
00000000
00000000
00000000
00000000
00000000
00000000
00000000
00000000
00000000
00000000
00000000
00000000
00000000
00000000
00000000
00000000
00000000
00000000
00000000
00000000
00000000
00000000
00000000
00000000
00000000
00000000
00000000
00000000
00000000
ENDCHAR
STARTCHAR 157
ENCODING 157
BBX 32 32 0 0
BITMAP
00000000
00000000
00000000
00000000
00000000
00000000
00000000
00000000
00000000
00000000
00000000
00000000
00000000
00000000
00000000
00000000
00000000
00000000
00000000
00000000
00000000
00000000
00000000
00000000
00000000
00000000
00000000
00000000
00000000
00000000
00000000
00000000
ENDCHAR
STARTCHAR 158
ENCODING 158
BBX 32 32 0 0
BITMAP
00000000
00000000
00000000
00000000
00000000
00000000
00000000
00000000
00000000
00000000
00000000
00000000
00000000
00000000
00000000
00000000
00000000
00000000
00000000
00000000
00000000
00000000
00000000
00000000
00000000
00000000
00000000
00000000
00000000
00000000
00000000
00000000
ENDCHAR
STARTCHAR 159
ENCODING 159
BBX 32 32 0 0
BITMAP
00000000
00000000
00000000
00000000
00000000
00000000
00000000
00000000
00000000
00000000
00000000
00000000
00000000
00000000
00000000
00000000
00000000
00000000
00000000
00000000
00000000
00000000
00000000
00000000
00000000
00000000
00000000
00000000
00000000
00000000
00000000
00000000
ENDCHAR
STARTCHAR 160
ENCODING 160
BBX 32 32 0 0
BITMAP
00000000
00000000
00000000
00000000
00000000
00000000
00000000
00000000
00000000
00000000
00000000
00000000
00000000
00000000
00000000
00000000
00000000
00000000
00000000
00000000
00000000
00000000
00000000
00000000
00000000
00000000
00000000
00000000
00000000
00000000
00000000
00000000
ENDCHAR
STARTCHAR 161
ENCODING 161
BBX 32 32 0 0
BITMAP
00000000
00000000
00000000
00000000
00000000
00000000
00000000
00000000
00f00000
00f00000
00f00000
00f00000
00f00000
00f00000
00f00000
00f00000
00f00000
00f00000
00f00000
00f00000
00000000
00000000
00000000
00000000
00f00000
00f00000
00f00000
00f00000
00000000
00000000
00000000
00000000
ENDCHAR
STARTCHAR 162
ENCODING 162
BBX 32 32 0 0
BITMAP
00000000
00000000
00000000
00000000
00000000
00000000
00000000
00000000
0f0f0000
0f0f0000
0f0f0000
0f0f0000
0f0f0000
0f0f0000
0f0f0000
0f0f0000
00000000
00000000
00000000
00000000
00000000
00000000
00000000
00000000
00000000
00000000
00000000
00000000
00000000
00000000
00000000
00000000
ENDCHAR
STARTCHAR 163
ENCODING 163
BBX 32 32 0 0
BITMAP
00000000
00000000
00000000
00000000
00000000
00000000
00000000
00000000
0f0f0000
0f0f0000
0f0f0000
0f0f0000
0fff0000
0fff0000
0fff0000
0fff0000
00000000
00000000
00000000
00000000
0fff0000
0fff0000
0fff0000
0fff0000
0f0f0000
0f0f0000
0f0f0000
0f0f0000
00000000
00000000
00000000
00000000
ENDCHAR
STARTCHAR 164
ENCODING 164
BBX 32 32 0 0
BITMAP
00000000
00000000
00000000
00000000
00f00000
00f00000
00f00000
00f00000
0fff0000
0fff0000
0fff0000
0fff0000
0f000000
0f000000
0f000000
0f000000
0fff0000
0fff0000
0fff0000
0fff0000
000f0000
000f0000
000f0000
000f0000
0fff0000
0fff0000
0fff0000
0fff0000
00f00000
00f00000
00f00000
00f00000
ENDCHAR
STARTCHAR 165
ENCODING 165
BBX 32 32 0 0
BITMAP
00000000
00000000
00000000
00000000
00000000
00000000
00000000
00000000
0f0f0000
0f0f0000
0f0f0000
0f0f0000
00ff0000
00ff0000
00ff0000
00ff0000
0ff00000
0ff00000
0ff00000
0ff00000
0f0f0000
0f0f0000
0f0f0000
0f0f0000
00000000
00000000
00000000
00000000
00000000
00000000
00000000
00000000
ENDCHAR
STARTCHAR 166
ENCODING 166
BBX 32 32 0 0
BITMAP
00000000
00000000
00000000
00000000
00000000
00000000
00000000
00000000
00000000
00000000
00000000
00000000
00f00000
00f00000
00f00000
00f00000
0fff0000
0fff0000
0fff0000
0fff0000
00f00000
00f00000
00f00000
00f00000
00000000
00000000
00000000
00000000
00000000
00000000
00000000
00000000
ENDCHAR
STARTCHAR 167
ENCODING 167
BBX 32 32 0 0
BITMAP
00000000
00000000
00000000
00000000
00000000
00000000
00000000
00000000
000f0000
000f0000
000f0000
000f0000
00f00000
00f00000
00f00000
00f00000
00000000
00000000
00000000
00000000
00000000
00000000
00000000
00000000
00000000
00000000
00000000
00000000
00000000
00000000
00000000
00000000
ENDCHAR
STARTCHAR 168
ENCODING 168
BBX 32 32 0 0
BITMAP
00000000
00000000
00000000
00000000
00000000
00000000
00000000
00000000
00f00000
00f00000
00f00000
00f00000
0f000000
0f000000
0f000000
0f000000
0f000000
0f000000
0f000000
0f000000
0f000000
0f000000
0f000000
0f000000
00f00000
00f00000
00f00000
00f00000
00000000
00000000
00000000
00000000
ENDCHAR
STARTCHAR 169
ENCODING 169
BBX 32 32 0 0
BITMAP
00000000
00000000
00000000
00000000
00000000
00000000
00000000
00000000
00f00000
00f00000
00f00000
00f00000
000f0000
000f0000
000f0000
000f0000
000f0000
000f0000
000f0000
000f0000
000f0000
000f0000
000f0000
000f0000
00f00000
00f00000
00f00000
00f00000
00000000
00000000
00000000
00000000
ENDCHAR
STARTCHAR 170
ENCODING 170
BBX 32 32 0 0
BITMAP
00000000
00000000
00000000
00000000
00000000
00000000
00000000
00000000
0f0f0000
0f0f0000
0f0f0000
0f0f0000
00f00000
00f00000
00f00000
00f00000
0fff0000
0fff0000
0fff0000
0fff0000
00f00000
00f00000
00f00000
00f00000
0f0f0000
0f0f0000
0f0f0000
0f0f0000
00000000
00000000
00000000
00000000
ENDCHAR
STARTCHAR 171
ENCODING 171
BBX 32 32 0 0
BITMAP
00000000
00000000
00000000
00000000
00000000
00000000
00000000
00000000
00f00000
00f00000
00f00000
00f00000
00f00000
00f00000
00f00000
00f00000
0fff0000
0fff0000
0fff0000
0fff0000
00f00000
00f00000
00f00000
00f00000
00f00000
00f00000
00f00000
00f00000
00000000
00000000
00000000
00000000
ENDCHAR
STARTCHAR 172
ENCODING 172
BBX 32 32 0 0
BITMAP
00000000
00000000
00000000
00000000
00000000
00000000
00000000
00000000
00000000
00000000
00000000
00000000
00000000
00000000
00000000
00000000
00f00000
00f00000
00f00000
00f00000
00f00000
00f00000
00f00000
00f00000
0f000000
0f000000
0f000000
0f000000
00000000
00000000
00000000
00000000
ENDCHAR
STARTCHAR 173
ENCODING 173
BBX 32 32 0 0
BITMAP
00000000
00000000
00000000
00000000
00000000
00000000
00000000
00000000
00000000
00000000
00000000
00000000
00000000
00000000
00000000
00000000
0fff0000
0fff0000
0fff0000
0fff0000
00000000
00000000
00000000
00000000
00000000
00000000
00000000
00000000
00000000
00000000
00000000
00000000
ENDCHAR
STARTCHAR 174
ENCODING 174
BBX 32 32 0 0
BITMAP
00000000
00000000
00000000
00000000
00000000
00000000
00000000
00000000
00000000
00000000
00000000
00000000
00000000
00000000
00000000
00000000
00000000
00000000
00000000
00000000
00f00000
00f00000
00f00000
00f00000
00f00000
00f00000
00f00000
00f00000
00000000
00000000
00000000
00000000
ENDCHAR
STARTCHAR 175
ENCODING 175
BBX 32 32 0 0
BITMAP
00000000
00000000
00000000
00000000
00000000
00000000
00000000
00000000
000f0000
000f0000
000f0000
000f0000
00ff0000
00ff0000
00ff0000
00ff0000
0ff00000
0ff00000
0ff00000
0ff00000
0f000000
0f000000
0f000000
0f000000
00000000
00000000
00000000
00000000
00000000
00000000
00000000
00000000
ENDCHAR
STARTCHAR 176
ENCODING 176
BBX 32 32 0 0
BITMAP
00000000
00000000
00000000
00000000
00000000
00000000
00000000
00000000
0fff0000
0fff0000
0fff0000
0fff0000
0f0f0000
0f0f0000
0f0f0000
0f0f0000
0f0f0000
0f0f0000
0f0f0000
0f0f0000
0f0f0000
0f0f0000
0f0f0000
0f0f0000
0fff0000
0fff0000
0fff0000
0fff0000
00000000
00000000
00000000
00000000
ENDCHAR
STARTCHAR 177
ENCODING 177
BBX 32 32 0 0
BITMAP
00000000
00000000
00000000
00000000
00000000
00000000
00000000
00000000
0ff00000
0ff00000
0ff00000
0ff00000
00f00000
00f00000
00f00000
00f00000
00f00000
00f00000
00f00000
00f00000
00f00000
00f00000
00f00000
00f00000
0fff0000
0fff0000
0fff0000
0fff0000
00000000
00000000
00000000
00000000
ENDCHAR
STARTCHAR 178
ENCODING 178
BBX 32 32 0 0
BITMAP
00000000
00000000
00000000
00000000
00000000
00000000
00000000
00000000
0fff0000
0fff0000
0fff0000
0fff0000
000f0000
000f0000
000f0000
000f0000
0fff0000
0fff0000
0fff0000
0fff0000
0f000000
0f000000
0f000000
0f000000
0fff0000
0fff0000
0fff0000
0fff0000
00000000
00000000
00000000
00000000
ENDCHAR
STARTCHAR 179
ENCODING 179
BBX 32 32 0 0
BITMAP
00000000
00000000
00000000
00000000
00000000
00000000
00000000
00000000
0fff0000
0fff0000
0fff0000
0fff0000
000f0000
000f0000
000f0000
000f0000
0fff0000
0fff0000
0fff0000
0fff0000
000f0000
000f0000
000f0000
000f0000
0fff0000
0fff0000
0fff0000
0fff0000
00000000
00000000
00000000
00000000
ENDCHAR
STARTCHAR 180
ENCODING 180
BBX 32 32 0 0
BITMAP
00000000
00000000
00000000
00000000
00000000
00000000
00000000
00000000
0f000000
0f000000
0f000000
0f000000
0ff00000
0ff00000
0ff00000
0ff00000
0fff0000
0fff0000
0fff0000
0fff0000
00f00000
00f00000
00f00000
00f00000
00f00000
00f00000
00f00000
00f00000
00000000
00000000
00000000
00000000
ENDCHAR
STARTCHAR 181
ENCODING 181
BBX 32 32 0 0
BITMAP
00000000
00000000
00000000
00000000
00000000
00000000
00000000
00000000
0fff0000
0fff0000
0fff0000
0fff0000
0f000000
0f000000
0f000000
0f000000
0fff0000
0fff0000
0fff0000
0fff0000
000f0000
000f0000
000f0000
000f0000
0fff0000
0fff0000
0fff0000
0fff0000
00000000
00000000
00000000
00000000
ENDCHAR
STARTCHAR 182
ENCODING 182
BBX 32 32 0 0
BITMAP
00000000
00000000
00000000
00000000
00000000
00000000
00000000
00000000
0fff0000
0fff0000
0fff0000
0fff0000
0f000000
0f000000
0f000000
0f000000
0fff0000
0fff0000
0fff0000
0fff0000
0f0f0000
0f0f0000
0f0f0000
0f0f0000
0fff0000
0fff0000
0fff0000
0fff0000
00000000
00000000
00000000
00000000
ENDCHAR
STARTCHAR 183
ENCODING 183
BBX 32 32 0 0
BITMAP
00000000
00000000
00000000
00000000
00000000
00000000
00000000
00000000
0fff0000
0fff0000
0fff0000
0fff0000
000f0000
000f0000
000f0000
000f0000
000f0000
000f0000
000f0000
000f0000
000f0000
000f0000
000f0000
000f0000
000f0000
000f0000
000f0000
000f0000
00000000
00000000
00000000
00000000
ENDCHAR
STARTCHAR 184
ENCODING 184
BBX 32 32 0 0
BITMAP
00000000
00000000
00000000
00000000
00000000
00000000
00000000
00000000
0fff0000
0fff0000
0fff0000
0fff0000
0f0f0000
0f0f0000
0f0f0000
0f0f0000
0fff0000
0fff0000
0fff0000
0fff0000
0f0f0000
0f0f0000
0f0f0000
0f0f0000
0fff0000
0fff0000
0fff0000
0fff0000
00000000
00000000
00000000
00000000
ENDCHAR
STARTCHAR 185
ENCODING 185
BBX 32 32 0 0
BITMAP
00000000
00000000
00000000
00000000
00000000
00000000
00000000
00000000
0fff0000
0fff0000
0fff0000
0fff0000
0f0f0000
0f0f0000
0f0f0000
0f0f0000
0fff0000
0fff0000
0fff0000
0fff0000
000f0000
000f0000
000f0000
000f0000
000f0000
000f0000
000f0000
000f0000
00000000
00000000
00000000
00000000
ENDCHAR
STARTCHAR 186
ENCODING 186
BBX 32 32 0 0
BITMAP
00000000
00000000
00000000
00000000
00000000
00000000
00000000
00000000
00000000
00000000
00000000
00000000
00f00000
00f00000
00f00000
00f00000
00000000
00000000
00000000
00000000
00f00000
00f00000
00f00000
00f00000
00000000
00000000
00000000
00000000
00000000
00000000
00000000
00000000
ENDCHAR
STARTCHAR 187
ENCODING 187
BBX 32 32 0 0
BITMAP
00000000
00000000
00000000
00000000
00000000
00000000
00000000
00000000
00000000
00000000
00000000
00000000
00f00000
00f00000
00f00000
00f00000
00000000
00000000
00000000
00000000
00f00000
00f00000
00f00000
00f00000
0f000000
0f000000
0f000000
0f000000
00000000
00000000
00000000
00000000
ENDCHAR
STARTCHAR 188
ENCODING 188
BBX 32 32 0 0
BITMAP
00000000
00000000
00000000
00000000
00000000
00000000
00000000
00000000
000f0000
000f0000
000f0000
000f0000
00f00000
00f00000
00f00000
00f00000
0f000000
0f000000
0f000000
0f000000
00f00000
00f00000
00f00000
00f00000
000f0000
000f0000
000f0000
000f0000
00000000
00000000
00000000
00000000
ENDCHAR
STARTCHAR 189
ENCODING 189
BBX 32 32 0 0
BITMAP
00000000
00000000
00000000
00000000
00000000
00000000
00000000
00000000
00000000
00000000
00000000
00000000
0fff0000
0fff0000
0fff0000
0fff0000
00000000
00000000
00000000
00000000
0fff0000
0fff0000
0fff0000
0fff0000
00000000
00000000
00000000
00000000
00000000
00000000
00000000
00000000
ENDCHAR
STARTCHAR 190
ENCODING 190
BBX 32 32 0 0
BITMAP
00000000
00000000
00000000
00000000
00000000
00000000
00000000
00000000
0f000000
0f000000
0f000000
0f000000
00f00000
00f00000
00f00000
00f00000
000f0000
000f0000
000f0000
000f0000
00f00000
00f00000
00f00000
00f00000
0f000000
0f000000
0f000000
0f000000
00000000
00000000
00000000
00000000
ENDCHAR
STARTCHAR 191
ENCODING 191
BBX 32 32 0 0
BITMAP
00000000
00000000
00000000
00000000
00000000
00000000
00000000
00000000
0fff0000
0fff0000
0fff0000
0fff0000
000f0000
000f0000
000f0000
000f0000
00ff0000
00ff0000
00ff0000
00ff0000
00000000
00000000
00000000
00000000
00f00000
00f00000
00f00000
00f00000
00000000
00000000
00000000
00000000
ENDCHAR
STARTCHAR 192
ENCODING 192
BBX 32 32 0 0
BITMAP
00000000
00000000
00000000
00000000
00000000
00000000
00000000
00000000
0fff0000
0fff0000
0fff0000
0fff0000
0f0f0000
0f0f0000
0f0f0000
0f0f0000
0f0f0000
0f0f0000
0f0f0000
0f0f0000
0f000000
0f000000
0f000000
0f000000
0fff0000
0fff0000
0fff0000
0fff0000
00000000
00000000
00000000
00000000
ENDCHAR
STARTCHAR 193
ENCODING 193
BBX 32 32 0 0
BITMAP
00000000
00000000
00000000
00000000
00000000
00000000
00000000
00000000
0fff0000
0fff0000
0fff0000
0fff0000
0f0f0000
0f0f0000
0f0f0000
0f0f0000
0fff0000
0fff0000
0fff0000
0fff0000
0f0f0000
0f0f0000
0f0f0000
0f0f0000
0f0f0000
0f0f0000
0f0f0000
0f0f0000
00000000
00000000
00000000
00000000
ENDCHAR
STARTCHAR 194
ENCODING 194
BBX 32 32 0 0
BITMAP
00000000
00000000
00000000
00000000
00000000
00000000
00000000
00000000
0fff0000
0fff0000
0fff0000
0fff0000
0f0f0000
0f0f0000
0f0f0000
0f0f0000
0fff0000
0fff0000
0fff0000
0fff0000
0f0f0000
0f0f0000
0f0f0000
0f0f0000
0fff0000
0fff0000
0fff0000
0fff0000
00000000
00000000
00000000
00000000
ENDCHAR
STARTCHAR 195
ENCODING 195
BBX 32 32 0 0
BITMAP
00000000
00000000
00000000
00000000
00000000
00000000
00000000
00000000
0fff0000
0fff0000
0fff0000
0fff0000
0f000000
0f000000
0f000000
0f000000
0f000000
0f000000
0f000000
0f000000
0f000000
0f000000
0f000000
0f000000
0fff0000
0fff0000
0fff0000
0fff0000
00000000
00000000
00000000
00000000
ENDCHAR
STARTCHAR 196
ENCODING 196
BBX 32 32 0 0
BITMAP
00000000
00000000
00000000
00000000
00000000
00000000
00000000
00000000
0ff00000
0ff00000
0ff00000
0ff00000
0f0f0000
0f0f0000
0f0f0000
0f0f0000
0f0f0000
0f0f0000
0f0f0000
0f0f0000
0f0f0000
0f0f0000
0f0f0000
0f0f0000
0ff00000
0ff00000
0ff00000
0ff00000
00000000
00000000
00000000
00000000
ENDCHAR
STARTCHAR 197
ENCODING 197
BBX 32 32 0 0
BITMAP
00000000
00000000
00000000
00000000
00000000
00000000
00000000
00000000
0fff0000
0fff0000
0fff0000
0fff0000
0f000000
0f000000
0f000000
0f000000
0ff00000
0ff00000
0ff00000
0ff00000
0f000000
0f000000
0f000000
0f000000
0fff0000
0fff0000
0fff0000
0fff0000
00000000
00000000
00000000
00000000
ENDCHAR
STARTCHAR 198
ENCODING 198
BBX 32 32 0 0
BITMAP
00000000
00000000
00000000
00000000
00000000
00000000
00000000
00000000
0fff0000
0fff0000
0fff0000
0fff0000
0f000000
0f000000
0f000000
0f000000
0ff00000
0ff00000
0ff00000
0ff00000
0f000000
0f000000
0f000000
0f000000
0f000000
0f000000
0f000000
0f000000
00000000
00000000
00000000
00000000
ENDCHAR
STARTCHAR 199
ENCODING 199
BBX 32 32 0 0
BITMAP
00000000
00000000
00000000
00000000
00000000
00000000
00000000
00000000
0fff0000
0fff0000
0fff0000
0fff0000
0f000000
0f000000
0f000000
0f000000
0f000000
0f000000
0f000000
0f000000
0f0f0000
0f0f0000
0f0f0000
0f0f0000
0fff0000
0fff0000
0fff0000
0fff0000
00000000
00000000
00000000
00000000
ENDCHAR
STARTCHAR 200
ENCODING 200
BBX 32 32 0 0
BITMAP
00000000
00000000
00000000
00000000
00000000
00000000
00000000
00000000
0f0f0000
0f0f0000
0f0f0000
0f0f0000
0f0f0000
0f0f0000
0f0f0000
0f0f0000
0fff0000
0fff0000
0fff0000
0fff0000
0f0f0000
0f0f0000
0f0f0000
0f0f0000
0f0f0000
0f0f0000
0f0f0000
0f0f0000
00000000
00000000
00000000
00000000
ENDCHAR
STARTCHAR 201
ENCODING 201
BBX 32 32 0 0
BITMAP
00000000
00000000
00000000
00000000
00000000
00000000
00000000
00000000
0fff0000
0fff0000
0fff0000
0fff0000
00f00000
00f00000
00f00000
00f00000
00f00000
00f00000
00f00000
00f00000
00f00000
00f00000
00f00000
00f00000
0fff0000
0fff0000
0fff0000
0fff0000
00000000
00000000
00000000
00000000
ENDCHAR
STARTCHAR 202
ENCODING 202
BBX 32 32 0 0
BITMAP
00000000
00000000
00000000
00000000
00000000
00000000
00000000
00000000
0fff0000
0fff0000
0fff0000
0fff0000
00f00000
00f00000
00f00000
00f00000
00f00000
00f00000
00f00000
00f00000
00f00000
00f00000
00f00000
00f00000
0ff00000
0ff00000
0ff00000
0ff00000
00000000
00000000
00000000
00000000
ENDCHAR
STARTCHAR 203
ENCODING 203
BBX 32 32 0 0
BITMAP
00000000
00000000
00000000
00000000
00000000
00000000
00000000
00000000
0f0f0000
0f0f0000
0f0f0000
0f0f0000
0f0f0000
0f0f0000
0f0f0000
0f0f0000
0ff00000
0ff00000
0ff00000
0ff00000
0f0f0000
0f0f0000
0f0f0000
0f0f0000
0f0f0000
0f0f0000
0f0f0000
0f0f0000
00000000
00000000
00000000
00000000
ENDCHAR
STARTCHAR 204
ENCODING 204
BBX 32 32 0 0
BITMAP
00000000
00000000
00000000
00000000
00000000
00000000
00000000
00000000
0f000000
0f000000
0f000000
0f000000
0f000000
0f000000
0f000000
0f000000
0f000000
0f000000
0f000000
0f000000
0f000000
0f000000
0f000000
0f000000
0fff0000
0fff0000
0fff0000
0fff0000
00000000
00000000
00000000
00000000
ENDCHAR
STARTCHAR 205
ENCODING 205
BBX 32 32 0 0
BITMAP
00000000
00000000
00000000
00000000
00000000
00000000
00000000
00000000
0f0f0000
0f0f0000
0f0f0000
0f0f0000
0fff0000
0fff0000
0fff0000
0fff0000
0f0f0000
0f0f0000
0f0f0000
0f0f0000
0f0f0000
0f0f0000
0f0f0000
0f0f0000
0f0f0000
0f0f0000
0f0f0000
0f0f0000
00000000
00000000
00000000
00000000
ENDCHAR
STARTCHAR 206
ENCODING 206
BBX 32 32 0 0
BITMAP
00000000
00000000
00000000
00000000
00000000
00000000
00000000
00000000
0fff0000
0fff0000
0fff0000
0fff0000
0f0f0000
0f0f0000
0f0f0000
0f0f0000
0f0f0000
0f0f0000
0f0f0000
0f0f0000
0f0f0000
0f0f0000
0f0f0000
0f0f0000
0f0f0000
0f0f0000
0f0f0000
0f0f0000
00000000
00000000
00000000
00000000
ENDCHAR
STARTCHAR 207
ENCODING 207
BBX 32 32 0 0
BITMAP
00000000
00000000
00000000
00000000
00000000
00000000
00000000
00000000
0fff0000
0fff0000
0fff0000
0fff0000
0f0f0000
0f0f0000
0f0f0000
0f0f0000
0f0f0000
0f0f0000
0f0f0000
0f0f0000
0f0f0000
0f0f0000
0f0f0000
0f0f0000
0fff0000
0fff0000
0fff0000
0fff0000
00000000
00000000
00000000
00000000
ENDCHAR
STARTCHAR 208
ENCODING 208
BBX 32 32 0 0
BITMAP
00000000
00000000
00000000
00000000
00000000
00000000
00000000
00000000
0fff0000
0fff0000
0fff0000
0fff0000
0f0f0000
0f0f0000
0f0f0000
0f0f0000
0fff0000
0fff0000
0fff0000
0fff0000
0f000000
0f000000
0f000000
0f000000
0f000000
0f000000
0f000000
0f000000
00000000
00000000
00000000
00000000
ENDCHAR
STARTCHAR 209
ENCODING 209
BBX 32 32 0 0
BITMAP
00000000
00000000
00000000
00000000
00000000
00000000
00000000
00000000
0fff0000
0fff0000
0fff0000
0fff0000
0f0f0000
0f0f0000
0f0f0000
0f0f0000
0fff0000
0fff0000
0fff0000
0fff0000
000f0000
000f0000
000f0000
000f0000
000f0000
000f0000
000f0000
000f0000
00000000
00000000
00000000
00000000
ENDCHAR
STARTCHAR 210
ENCODING 210
BBX 32 32 0 0
BITMAP
00000000
00000000
00000000
00000000
00000000
00000000
00000000
00000000
0fff0000
0fff0000
0fff0000
0fff0000
0f0f0000
0f0f0000
0f0f0000
0f0f0000
0ff00000
0ff00000
0ff00000
0ff00000
0f0f0000
0f0f0000
0f0f0000
0f0f0000
0f0f0000
0f0f0000
0f0f0000
0f0f0000
00000000
00000000
00000000
00000000
ENDCHAR
STARTCHAR 211
ENCODING 211
BBX 32 32 0 0
BITMAP
00000000
00000000
00000000
00000000
00000000
00000000
00000000
00000000
0fff0000
0fff0000
0fff0000
0fff0000
0f000000
0f000000
0f000000
0f000000
0fff0000
0fff0000
0fff0000
0fff0000
000f0000
000f0000
000f0000
000f0000
0fff0000
0fff0000
0fff0000
0fff0000
00000000
00000000
00000000
00000000
ENDCHAR
STARTCHAR 212
ENCODING 212
BBX 32 32 0 0
BITMAP
00000000
00000000
00000000
00000000
00000000
00000000
00000000
00000000
0fff0000
0fff0000
0fff0000
0fff0000
00f00000
00f00000
00f00000
00f00000
00f00000
00f00000
00f00000
00f00000
00f00000
00f00000
00f00000
00f00000
00f00000
00f00000
00f00000
00f00000
00000000
00000000
00000000
00000000
ENDCHAR
STARTCHAR 213
ENCODING 213
BBX 32 32 0 0
BITMAP
00000000
00000000
00000000
00000000
00000000
00000000
00000000
00000000
0f0f0000
0f0f0000
0f0f0000
0f0f0000
0f0f0000
0f0f0000
0f0f0000
0f0f0000
0f0f0000
0f0f0000
0f0f0000
0f0f0000
0f0f0000
0f0f0000
0f0f0000
0f0f0000
0fff0000
0fff0000
0fff0000
0fff0000
00000000
00000000
00000000
00000000
ENDCHAR
STARTCHAR 214
ENCODING 214
BBX 32 32 0 0
BITMAP
00000000
00000000
00000000
00000000
00000000
00000000
00000000
00000000
0f0f0000
0f0f0000
0f0f0000
0f0f0000
0f0f0000
0f0f0000
0f0f0000
0f0f0000
0f0f0000
0f0f0000
0f0f0000
0f0f0000
0f0f0000
0f0f0000
0f0f0000
0f0f0000
00f00000
00f00000
00f00000
00f00000
00000000
00000000
00000000
00000000
ENDCHAR
STARTCHAR 215
ENCODING 215
BBX 32 32 0 0
BITMAP
00000000
00000000
00000000
00000000
00000000
00000000
00000000
00000000
0f0f0000
0f0f0000
0f0f0000
0f0f0000
0f0f0000
0f0f0000
0f0f0000
0f0f0000
0f0f0000
0f0f0000
0f0f0000
0f0f0000
0fff0000
0fff0000
0fff0000
0fff0000
0f0f0000
0f0f0000
0f0f0000
0f0f0000
00000000
00000000
00000000
00000000
ENDCHAR
STARTCHAR 216
ENCODING 216
BBX 32 32 0 0
BITMAP
00000000
00000000
00000000
00000000
00000000
00000000
00000000
00000000
0f0f0000
0f0f0000
0f0f0000
0f0f0000
0f0f0000
0f0f0000
0f0f0000
0f0f0000
00f00000
00f00000
00f00000
00f00000
0f0f0000
0f0f0000
0f0f0000
0f0f0000
0f0f0000
0f0f0000
0f0f0000
0f0f0000
00000000
00000000
00000000
00000000
ENDCHAR
STARTCHAR 217
ENCODING 217
BBX 32 32 0 0
BITMAP
00000000
00000000
00000000
00000000
00000000
00000000
00000000
00000000
0f0f0000
0f0f0000
0f0f0000
0f0f0000
0f0f0000
0f0f0000
0f0f0000
0f0f0000
0fff0000
0fff0000
0fff0000
0fff0000
000f0000
000f0000
000f0000
000f0000
0fff0000
0fff0000
0fff0000
0fff0000
00000000
00000000
00000000
00000000
ENDCHAR
STARTCHAR 218
ENCODING 218
BBX 32 32 0 0
BITMAP
00000000
00000000
00000000
00000000
00000000
00000000
00000000
00000000
0fff0000
0fff0000
0fff0000
0fff0000
000f0000
000f0000
000f0000
000f0000
00f00000
00f00000
00f00000
00f00000
0f000000
0f000000
0f000000
0f000000
0fff0000
0fff0000
0fff0000
0fff0000
00000000
00000000
00000000
00000000
ENDCHAR
STARTCHAR 219
ENCODING 219
BBX 32 32 0 0
BITMAP
00000000
00000000
00000000
00000000
00000000
00000000
00000000
00000000
0ff00000
0ff00000
0ff00000
0ff00000
0f000000
0f000000
0f000000
0f000000
0f000000
0f000000
0f000000
0f000000
0f000000
0f000000
0f000000
0f000000
0ff00000
0ff00000
0ff00000
0ff00000
00000000
00000000
00000000
00000000
ENDCHAR
STARTCHAR 220
ENCODING 220
BBX 32 32 0 0
BITMAP
00000000
00000000
00000000
00000000
00000000
00000000
00000000
00000000
0f000000
0f000000
0f000000
0f000000
0ff00000
0ff00000
0ff00000
0ff00000
00ff0000
00ff0000
00ff0000
00ff0000
000f0000
000f0000
000f0000
000f0000
00000000
00000000
00000000
00000000
00000000
00000000
00000000
00000000
ENDCHAR
STARTCHAR 221
ENCODING 221
BBX 32 32 0 0
BITMAP
00000000
00000000
00000000
00000000
00000000
00000000
00000000
00000000
00ff0000
00ff0000
00ff0000
00ff0000
000f0000
000f0000
000f0000
000f0000
000f0000
000f0000
000f0000
000f0000
000f0000
000f0000
000f0000
000f0000
00ff0000
00ff0000
00ff0000
00ff0000
00000000
00000000
00000000
00000000
ENDCHAR
STARTCHAR 222
ENCODING 222
BBX 32 32 0 0
BITMAP
00000000
00000000
00000000
00000000
00000000
00000000
00000000
00000000
00f00000
00f00000
00f00000
00f00000
0f0f0000
0f0f0000
0f0f0000
0f0f0000
00000000
00000000
00000000
00000000
00000000
00000000
00000000
00000000
00000000
00000000
00000000
00000000
00000000
00000000
00000000
00000000
ENDCHAR
STARTCHAR 223
ENCODING 223
BBX 32 32 0 0
BITMAP
00000000
00000000
00000000
00000000
00000000
00000000
00000000
00000000
00000000
00000000
00000000
00000000
00000000
00000000
00000000
00000000
00000000
00000000
00000000
00000000
00000000
00000000
00000000
00000000
00000000
00000000
00000000
00000000
0fff0000
0fff0000
0fff0000
0fff0000
ENDCHAR
STARTCHAR 224
ENCODING 224
BBX 32 32 0 0
BITMAP
00000000
00000000
00000000
00000000
00000000
00000000
00000000
00000000
00ff0000
00ff0000
00ff0000
00ff0000
00f00000
00f00000
00f00000
00f00000
0fff0000
0fff0000
0fff0000
0fff0000
00f00000
00f00000
00f00000
00f00000
0fff0000
0fff0000
0fff0000
0fff0000
00000000
00000000
00000000
00000000
ENDCHAR
STARTCHAR 225
ENCODING 225
BBX 32 32 0 0
BITMAP
00000000
00000000
00000000
00000000
00000000
00000000
00000000
00000000
0fff0000
0fff0000
0fff0000
0fff0000
0f0f0000
0f0f0000
0f0f0000
0f0f0000
0fff0000
0fff0000
0fff0000
0fff0000
0f0f0000
0f0f0000
0f0f0000
0f0f0000
0f0f0000
0f0f0000
0f0f0000
0f0f0000
00000000
00000000
00000000
00000000
ENDCHAR
STARTCHAR 226
ENCODING 226
BBX 32 32 0 0
BITMAP
00000000
00000000
00000000
00000000
00000000
00000000
00000000
00000000
0fff0000
0fff0000
0fff0000
0fff0000
0f0f0000
0f0f0000
0f0f0000
0f0f0000
0fff0000
0fff0000
0fff0000
0fff0000
0f0f0000
0f0f0000
0f0f0000
0f0f0000
0fff0000
0fff0000
0fff0000
0fff0000
00000000
00000000
00000000
00000000
ENDCHAR
STARTCHAR 227
ENCODING 227
BBX 32 32 0 0
BITMAP
00000000
00000000
00000000
00000000
00000000
00000000
00000000
00000000
0fff0000
0fff0000
0fff0000
0fff0000
0f000000
0f000000
0f000000
0f000000
0f000000
0f000000
0f000000
0f000000
0f000000
0f000000
0f000000
0f000000
0fff0000
0fff0000
0fff0000
0fff0000
00000000
00000000
00000000
00000000
ENDCHAR
STARTCHAR 228
ENCODING 228
BBX 32 32 0 0
BITMAP
00000000
00000000
00000000
00000000
00000000
00000000
00000000
00000000
0ff00000
0ff00000
0ff00000
0ff00000
0f0f0000
0f0f0000
0f0f0000
0f0f0000
0f0f0000
0f0f0000
0f0f0000
0f0f0000
0f0f0000
0f0f0000
0f0f0000
0f0f0000
0ff00000
0ff00000
0ff00000
0ff00000
00000000
00000000
00000000
00000000
ENDCHAR
STARTCHAR 229
ENCODING 229
BBX 32 32 0 0
BITMAP
00000000
00000000
00000000
00000000
00000000
00000000
00000000
00000000
0fff0000
0fff0000
0fff0000
0fff0000
0f000000
0f000000
0f000000
0f000000
0ff00000
0ff00000
0ff00000
0ff00000
0f000000
0f000000
0f000000
0f000000
0fff0000
0fff0000
0fff0000
0fff0000
00000000
00000000
00000000
00000000
ENDCHAR
STARTCHAR 230
ENCODING 230
BBX 32 32 0 0
BITMAP
00000000
00000000
00000000
00000000
00000000
00000000
00000000
00000000
0fff0000
0fff0000
0fff0000
0fff0000
0f000000
0f000000
0f000000
0f000000
0ff00000
0ff00000
0ff00000
0ff00000
0f000000
0f000000
0f000000
0f000000
0f000000
0f000000
0f000000
0f000000
00000000
00000000
00000000
00000000
ENDCHAR
STARTCHAR 231
ENCODING 231
BBX 32 32 0 0
BITMAP
00000000
00000000
00000000
00000000
00000000
00000000
00000000
00000000
0fff0000
0fff0000
0fff0000
0fff0000
0f000000
0f000000
0f000000
0f000000
0f000000
0f000000
0f000000
0f000000
0f0f0000
0f0f0000
0f0f0000
0f0f0000
0fff0000
0fff0000
0fff0000
0fff0000
00000000
00000000
00000000
00000000
ENDCHAR
STARTCHAR 232
ENCODING 232
BBX 32 32 0 0
BITMAP
00000000
00000000
00000000
00000000
00000000
00000000
00000000
00000000
0f0f0000
0f0f0000
0f0f0000
0f0f0000
0f0f0000
0f0f0000
0f0f0000
0f0f0000
0fff0000
0fff0000
0fff0000
0fff0000
0f0f0000
0f0f0000
0f0f0000
0f0f0000
0f0f0000
0f0f0000
0f0f0000
0f0f0000
00000000
00000000
00000000
00000000
ENDCHAR
STARTCHAR 233
ENCODING 233
BBX 32 32 0 0
BITMAP
00000000
00000000
00000000
00000000
00000000
00000000
00000000
00000000
0fff0000
0fff0000
0fff0000
0fff0000
00f00000
00f00000
00f00000
00f00000
00f00000
00f00000
00f00000
00f00000
00f00000
00f00000
00f00000
00f00000
0fff0000
0fff0000
0fff0000
0fff0000
00000000
00000000
00000000
00000000
ENDCHAR
STARTCHAR 234
ENCODING 234
BBX 32 32 0 0
BITMAP
00000000
00000000
00000000
00000000
00000000
00000000
00000000
00000000
0fff0000
0fff0000
0fff0000
0fff0000
00f00000
00f00000
00f00000
00f00000
00f00000
00f00000
00f00000
00f00000
00f00000
00f00000
00f00000
00f00000
0ff00000
0ff00000
0ff00000
0ff00000
00000000
00000000
00000000
00000000
ENDCHAR
STARTCHAR 235
ENCODING 235
BBX 32 32 0 0
BITMAP
00000000
00000000
00000000
00000000
00000000
00000000
00000000
00000000
0f0f0000
0f0f0000
0f0f0000
0f0f0000
0f0f0000
0f0f0000
0f0f0000
0f0f0000
0ff00000
0ff00000
0ff00000
0ff00000
0f0f0000
0f0f0000
0f0f0000
0f0f0000
0f0f0000
0f0f0000
0f0f0000
0f0f0000
00000000
00000000
00000000
00000000
ENDCHAR
STARTCHAR 236
ENCODING 236
BBX 32 32 0 0
BITMAP
00000000
00000000
00000000
00000000
00000000
00000000
00000000
00000000
0f000000
0f000000
0f000000
0f000000
0f000000
0f000000
0f000000
0f000000
0f000000
0f000000
0f000000
0f000000
0f000000
0f000000
0f000000
0f000000
0fff0000
0fff0000
0fff0000
0fff0000
00000000
00000000
00000000
00000000
ENDCHAR
STARTCHAR 237
ENCODING 237
BBX 32 32 0 0
BITMAP
00000000
00000000
00000000
00000000
00000000
00000000
00000000
00000000
0f0f0000
0f0f0000
0f0f0000
0f0f0000
0fff0000
0fff0000
0fff0000
0fff0000
0f0f0000
0f0f0000
0f0f0000
0f0f0000
0f0f0000
0f0f0000
0f0f0000
0f0f0000
0f0f0000
0f0f0000
0f0f0000
0f0f0000
00000000
00000000
00000000
00000000
ENDCHAR
STARTCHAR 238
ENCODING 238
BBX 32 32 0 0
BITMAP
00000000
00000000
00000000
00000000
00000000
00000000
00000000
00000000
0fff0000
0fff0000
0fff0000
0fff0000
0f0f0000
0f0f0000
0f0f0000
0f0f0000
0f0f0000
0f0f0000
0f0f0000
0f0f0000
0f0f0000
0f0f0000
0f0f0000
0f0f0000
0f0f0000
0f0f0000
0f0f0000
0f0f0000
00000000
00000000
00000000
00000000
ENDCHAR
STARTCHAR 239
ENCODING 239
BBX 32 32 0 0
BITMAP
00000000
00000000
00000000
00000000
00000000
00000000
00000000
00000000
0fff0000
0fff0000
0fff0000
0fff0000
0f0f0000
0f0f0000
0f0f0000
0f0f0000
0f0f0000
0f0f0000
0f0f0000
0f0f0000
0f0f0000
0f0f0000
0f0f0000
0f0f0000
0fff0000
0fff0000
0fff0000
0fff0000
00000000
00000000
00000000
00000000
ENDCHAR
STARTCHAR 240
ENCODING 240
BBX 32 32 0 0
BITMAP
00000000
00000000
00000000
00000000
00000000
00000000
00000000
00000000
0fff0000
0fff0000
0fff0000
0fff0000
0f0f0000
0f0f0000
0f0f0000
0f0f0000
0fff0000
0fff0000
0fff0000
0fff0000
0f000000
0f000000
0f000000
0f000000
0f000000
0f000000
0f000000
0f000000
00000000
00000000
00000000
00000000
ENDCHAR
STARTCHAR 241
ENCODING 241
BBX 32 32 0 0
BITMAP
00000000
00000000
00000000
00000000
00000000
00000000
00000000
00000000
0fff0000
0fff0000
0fff0000
0fff0000
0f0f0000
0f0f0000
0f0f0000
0f0f0000
0fff0000
0fff0000
0fff0000
0fff0000
000f0000
000f0000
000f0000
000f0000
000f0000
000f0000
000f0000
000f0000
00000000
00000000
00000000
00000000
ENDCHAR
STARTCHAR 242
ENCODING 242
BBX 32 32 0 0
BITMAP
00000000
00000000
00000000
00000000
00000000
00000000
00000000
00000000
0fff0000
0fff0000
0fff0000
0fff0000
0f0f0000
0f0f0000
0f0f0000
0f0f0000
0ff00000
0ff00000
0ff00000
0ff00000
0f0f0000
0f0f0000
0f0f0000
0f0f0000
0f0f0000
0f0f0000
0f0f0000
0f0f0000
00000000
00000000
00000000
00000000
ENDCHAR
STARTCHAR 243
ENCODING 243
BBX 32 32 0 0
BITMAP
00000000
00000000
00000000
00000000
00000000
00000000
00000000
00000000
0fff0000
0fff0000
0fff0000
0fff0000
0f000000
0f000000
0f000000
0f000000
0fff0000
0fff0000
0fff0000
0fff0000
000f0000
000f0000
000f0000
000f0000
0fff0000
0fff0000
0fff0000
0fff0000
00000000
00000000
00000000
00000000
ENDCHAR
STARTCHAR 244
ENCODING 244
BBX 32 32 0 0
BITMAP
00000000
00000000
00000000
00000000
00000000
00000000
00000000
00000000
0fff0000
0fff0000
0fff0000
0fff0000
00f00000
00f00000
00f00000
00f00000
00f00000
00f00000
00f00000
00f00000
00f00000
00f00000
00f00000
00f00000
00f00000
00f00000
00f00000
00f00000
00000000
00000000
00000000
00000000
ENDCHAR
STARTCHAR 245
ENCODING 245
BBX 32 32 0 0
BITMAP
00000000
00000000
00000000
00000000
00000000
00000000
00000000
00000000
0f0f0000
0f0f0000
0f0f0000
0f0f0000
0f0f0000
0f0f0000
0f0f0000
0f0f0000
0f0f0000
0f0f0000
0f0f0000
0f0f0000
0f0f0000
0f0f0000
0f0f0000
0f0f0000
0fff0000
0fff0000
0fff0000
0fff0000
00000000
00000000
00000000
00000000
ENDCHAR
STARTCHAR 246
ENCODING 246
BBX 32 32 0 0
BITMAP
00000000
00000000
00000000
00000000
00000000
00000000
00000000
00000000
0f0f0000
0f0f0000
0f0f0000
0f0f0000
0f0f0000
0f0f0000
0f0f0000
0f0f0000
0f0f0000
0f0f0000
0f0f0000
0f0f0000
0f0f0000
0f0f0000
0f0f0000
0f0f0000
00f00000
00f00000
00f00000
00f00000
00000000
00000000
00000000
00000000
ENDCHAR
STARTCHAR 247
ENCODING 247
BBX 32 32 0 0
BITMAP
00000000
00000000
00000000
00000000
00000000
00000000
00000000
00000000
0f0f0000
0f0f0000
0f0f0000
0f0f0000
0f0f0000
0f0f0000
0f0f0000
0f0f0000
0f0f0000
0f0f0000
0f0f0000
0f0f0000
0fff0000
0fff0000
0fff0000
0fff0000
0f0f0000
0f0f0000
0f0f0000
0f0f0000
00000000
00000000
00000000
00000000
ENDCHAR
STARTCHAR 248
ENCODING 248
BBX 32 32 0 0
BITMAP
00000000
00000000
00000000
00000000
00000000
00000000
00000000
00000000
0f0f0000
0f0f0000
0f0f0000
0f0f0000
0f0f0000
0f0f0000
0f0f0000
0f0f0000
00f00000
00f00000
00f00000
00f00000
0f0f0000
0f0f0000
0f0f0000
0f0f0000
0f0f0000
0f0f0000
0f0f0000
0f0f0000
00000000
00000000
00000000
00000000
ENDCHAR
STARTCHAR 249
ENCODING 249
BBX 32 32 0 0
BITMAP
00000000
00000000
00000000
00000000
00000000
00000000
00000000
00000000
0f0f0000
0f0f0000
0f0f0000
0f0f0000
0f0f0000
0f0f0000
0f0f0000
0f0f0000
0fff0000
0fff0000
0fff0000
0fff0000
000f0000
000f0000
000f0000
000f0000
0fff0000
0fff0000
0fff0000
0fff0000
00000000
00000000
00000000
00000000
ENDCHAR
STARTCHAR 250
ENCODING 250
BBX 32 32 0 0
BITMAP
00000000
00000000
00000000
00000000
00000000
00000000
00000000
00000000
0fff0000
0fff0000
0fff0000
0fff0000
000f0000
000f0000
000f0000
000f0000
00f00000
00f00000
00f00000
00f00000
0f000000
0f000000
0f000000
0f000000
0fff0000
0fff0000
0fff0000
0fff0000
00000000
00000000
00000000
00000000
ENDCHAR
STARTCHAR 251
ENCODING 251
BBX 32 32 0 0
BITMAP
00000000
00000000
00000000
00000000
00000000
00000000
00000000
00000000
00ff0000
00ff0000
00ff0000
00ff0000
00f00000
00f00000
00f00000
00f00000
0ff00000
0ff00000
0ff00000
0ff00000
00f00000
00f00000
00f00000
00f00000
00ff0000
00ff0000
00ff0000
00ff0000
00000000
00000000
00000000
00000000
ENDCHAR
STARTCHAR 252
ENCODING 252
BBX 32 32 0 0
BITMAP
00000000
00000000
00000000
00000000
00000000
00000000
00000000
00000000
00f00000
00f00000
00f00000
00f00000
00f00000
00f00000
00f00000
00f00000
00000000
00000000
00000000
00000000
00f00000
00f00000
00f00000
00f00000
00f00000
00f00000
00f00000
00f00000
00000000
00000000
00000000
00000000
ENDCHAR
STARTCHAR 253
ENCODING 253
BBX 32 32 0 0
BITMAP
00000000
00000000
00000000
00000000
00000000
00000000
00000000
00000000
0ff00000
0ff00000
0ff00000
0ff00000
00f00000
00f00000
00f00000
00f00000
00ff0000
00ff0000
00ff0000
00ff0000
00f00000
00f00000
00f00000
00f00000
0ff00000
0ff00000
0ff00000
0ff00000
00000000
00000000
00000000
00000000
ENDCHAR
STARTCHAR 254
ENCODING 254
BBX 32 32 0 0
BITMAP
00000000
00000000
00000000
00000000
00000000
00000000
00000000
00000000
000f0000
000f0000
000f0000
000f0000
0fff0000
0fff0000
0fff0000
0fff0000
0f000000
0f000000
0f000000
0f000000
00000000
00000000
00000000
00000000
00000000
00000000
00000000
00000000
00000000
00000000
00000000
00000000
ENDCHAR
STARTCHAR 255
ENCODING 255
BBX 32 32 0 0
BITMAP
00000000
00000000
00000000
00000000
00000000
00000000
00000000
00000000
0fff0000
0fff0000
0fff0000
0fff0000
0fff0000
0fff0000
0fff0000
0fff0000
0fff0000
0fff0000
0fff0000
0fff0000
0fff0000
0fff0000
0fff0000
0fff0000
0fff0000
0fff0000
0fff0000
0fff0000
00000000
00000000
00000000
00000000
ENDCHAR
ENDFONT
